<svg id="Layer_1" data-name="Layer 1" xmlns="http://www.w3.org/2000/svg" viewBox="0 0 251 251"><defs><style>.cls-1,.cls-2,.cls-4,.cls-6{fill:none;stroke:#fff;}.cls-1,.cls-2,.cls-6{stroke-miterlimit:10;}.cls-2,.cls-4{stroke-width:0.5px;}.cls-3{fill:#fff;}.cls-4{stroke-linecap:square;stroke-miterlimit:1;}.cls-5{opacity:0.2;}.cls-6{stroke-dasharray:2 2;}</style></defs><path id="gearpoly0" class="cls-1" d="M246.25,175h18l.32,0,.49-.07.65-.11.81-.18,1-.25,1.11-.35,1.27-.45,1.39-.57,1.53-.71,1.64-.85,1.75-1,1.85-1.17,1.94-1.34,2-1.53,2.07-1.73,2.13-1.92,2.15-2.14,2.18-2.36,2.18-2.57,2.17-2.81,2.14-3,.27-.4,0-.05,0,0h0l-1.47-6.21h0l0,0-.42-.23-3.27-1.76-3.2-1.53-3.1-1.33-3-1.13-2.89-1-2.76-.77-2.62-.61-2.49-.47-2.33-.34-2.18-.21-2-.11-1.85,0-1.68.05-1.51.11-1.33.16-1.15.19-1,.21-.81.2-.63.19-.46.17-.3.12-.14.06-16,8-13.32-18.47L238,112l.11-.12.2-.24.3-.39.39-.54.45-.7.5-.87.54-1,.57-1.21.59-1.4.58-1.57.56-1.76.53-2,.48-2.14.42-2.32.34-2.5.25-2.69L245,87.7v-3l-.13-3.2-.28-3.36-.45-3.52-.63-3.66-.09-.47v-.09h0L237.94,67h0l-.05,0-.46.12-3.56,1.08-3.34,1.18-3.14,1.25L224.43,72l-2.71,1.37-2.5,1.41-2.29,1.42-2.08,1.43L213,79l-1.69,1.39-1.51,1.34-1.32,1.3-1.15,1.22-1,1.15-.83,1-.68,1-.55.84-.42.71-.32.59-.21.44-.13.3,0,.14-5.64,17L175,103.75v-18l0-.32-.07-.49-.11-.65-.18-.81-.25-1L174,81.38l-.45-1.27L173,78.72l-.71-1.53-.85-1.64-1-1.75L169.26,72,167.92,70l-1.53-2-1.73-2.07-1.92-2.13-2.14-2.15-2.36-2.18-2.57-2.18-2.81-2.17-3-2.14-.4-.27-.05,0,0,0h0l-6.21,1.47h0v0l0,.05-.23.42L141.1,57.9l-1.53,3.2-1.33,3.1-1.13,3-1,2.89-.77,2.76-.61,2.62L134.31,78,134,80.29l-.21,2.18-.11,2,0,1.85.05,1.68.11,1.51.16,1.33.19,1.15.21,1,.2.81.19.63.17.46.12.3.06.14,8,16-18.47,13.32L112,112l-.12-.11-.24-.2-.39-.3-.54-.39-.7-.45-.87-.5-1-.54-1.21-.57-1.4-.59-1.57-.58-1.76-.56-2-.53-2.14-.48-2.32-.42-2.5-.34-2.69-.25L87.7,105h-3l-3.2.13-3.36.28-3.52.45-3.66.63-.47.09h-.09L67,112.06h0v0l0,.05.12.46,1.08,3.56,1.18,3.34,1.25,3.14L72,125.57l1.37,2.71,1.41,2.5,1.42,2.29,1.43,2.08L79,137l1.39,1.69,1.34,1.51,1.3,1.32,1.22,1.15,1.15,1,1,.83,1,.68.84.55.71.42.59.32.44.21.3.13.14,0,17,5.64L103.75,175h-18l-.32,0-.49.07-.65.11-.81.18-1,.25-1.11.35-1.27.45-1.39.57-1.53.71-1.64.85-1.75,1L72,180.74,70,182.08l-2,1.53-2.07,1.73-2.13,1.92-2.15,2.14-2.18,2.36-2.18,2.57-2.17,2.81-2.14,3-.27.4,0,.05,0,0h0l1.47,6.21h0l.05,0,.42.23,3.27,1.76,3.2,1.53,3.1,1.33,3,1.13,2.89,1,2.76.77,2.62.61,2.49.47,2.33.34,2.18.21,2,.11,1.85,0,1.68-.05,1.51-.11,1.33-.16,1.15-.19,1-.21.81-.2.63-.19.46-.17.3-.12.14-.06,16-8,13.32,18.47L112,238l-.11.12-.2.24-.3.39-.39.54-.45.7-.5.87-.54,1-.57,1.21-.59,1.4-.58,1.57-.56,1.76-.53,1.95-.48,2.14-.42,2.32-.34,2.5-.25,2.69L105,262.3v3l.13,3.2.28,3.36.45,3.52.63,3.66.09.47v.09h0l5.43,3.36h0l.05,0,.46-.12,3.56-1.08,3.34-1.18,3.14-1.25,2.92-1.32,2.71-1.37,2.5-1.41,2.29-1.42,2.08-1.43L137,271l1.69-1.39,1.51-1.34,1.32-1.3,1.15-1.22,1-1.15.83-1.05.68-.95.55-.84.42-.71.32-.59.21-.44.13-.3,0-.14,5.64-16.95L175,246.25v18l0,.32.07.49.11.65.18.81.25,1,.35,1.11.45,1.27.57,1.39.71,1.53.85,1.64,1,1.75,1.17,1.85,1.34,1.94,1.53,2,1.73,2.07,1.92,2.13,2.14,2.15,2.36,2.18,2.57,2.18,2.81,2.17,3,2.14.4.27.05,0,0,0h0l6.21-1.47h0v0l0,0,.23-.42,1.76-3.27,1.53-3.2,1.33-3.1,1.13-3,1-2.89.77-2.76.61-2.62.47-2.49.34-2.33.21-2.18.11-2,0-1.85-.05-1.68-.11-1.51-.16-1.33-.19-1.15-.21-1-.2-.81-.19-.63-.17-.46-.12-.3-.06-.14-8-16,18.47-13.32L238,238l.12.11.24.2.39.3.54.39.7.45.87.5,1,.54,1.21.57,1.4.59,1.57.58,1.76.56,1.95.53,2.14.48,2.32.42,2.5.34,2.69.25,2.86.14h3l3.2-.13,3.36-.28,3.52-.45,3.66-.63.47-.09h.09l3.36-5.43h0v0l0-.05-.12-.46-1.08-3.56-1.18-3.34-1.25-3.14L278,224.43l-1.37-2.71-1.41-2.5-1.42-2.29-1.43-2.08L271,213l-1.39-1.69-1.34-1.51-1.3-1.32-1.22-1.15-1.15-1-1.05-.83-.95-.68-.84-.55-.71-.42-.59-.32-.44-.21-.3-.13-.14,0-16.95-5.64Z" transform="translate(-49.5 -49.5)"/><line class="cls-2" x1="135.5" y1="125.5" x2="115.5" y2="125.5"/><line class="cls-2" x1="125.5" y1="135.5" x2="125.5" y2="115.5"/><circle class="cls-3" cx="222.82" cy="102.49" r="9.81"/><polyline class="cls-4" points="96.21 79.79 94.8 80.73 93.42 81.71 92.06 82.73 90.74 83.8"/><line class="cls-4" x1="95.42" y1="84.45" x2="91.41" y2="78.97"/><polyline class="cls-4" points="94.38 76.94 93.84 79.33 93.42 81.71 93.11 84.07 92.92 86.41"/><polyline class="cls-4" points="98.04 82.65 95.76 82.13 93.42 81.71 91.02 81.4 88.57 81.19"/><polyline class="cls-4" points="105.05 78.9 104.33 81.09 102.95 81.77 100.77 81.02 97.48 75.09 98.29 72.73 99.95 71.9 102.32 72.68 105.05 78.9"/><polyline class="cls-4" points="121.36 66.27 122.07 76.42 120.28 74.02 118.34 71.69 116.25 69.43 114.01 67.25 115.98 77.23"/><polyline class="cls-4" points="132.07 69.9 130.33 69.73 128.59 69.6 126.84 69.53 125.09 69.52"/><polyline class="cls-4" points="131.67 73.27 130.04 73.11 128.4 72.99 126.76 72.93 125.11 72.91"/><polyline class="cls-4" points="136.89 72.42 134.92 73.76 134.62 75.43 135.82 77.4 137.32 77.75 138.81 78.14 140.79 76.96 141.3 75.34 140.18 73.24 138.54 72.8 136.89 72.42 135.53 70.42 135.84 68.76 137.96 67.45 139.77 67.86 141.56 68.34 142.83 70.49 142.32 72.1 140.18 73.24"/><polyline class="cls-4" points="152.66 78.5 154.11 79.37 155.54 80.28 156.94 81.24 159.33 80.9 160.36 79.55 159.89 77.1 158.36 76.04 156.8 75.04 155.2 74.09 150.11 82.9"/><line class="cls-4" x1="157.62" y1="88.24" x2="162.05" y2="83.1"/><line class="cls-4" x1="163.16" y1="81.81" x2="164.27" y2="80.53"/><polyline class="cls-4" points="165.33 93.82 163.03 93.69 163.28 91.4 169.57 85.71"/><polyline class="cls-4" points="169.31 90.65 168.2 89.3 167.05 87.99 165.86 86.71 164.63 85.46"/><polyline class="cls-4" points="169.04 102.59 168.3 101.24 167.52 99.92 166.7 98.62 167.23 96.37 170.01 94.43 172.38 94.91 173.32 96.39 174.2 97.9 175.04 99.43"/><polyline class="cls-4" points="173.48 103.97 175.7 104.83 177.91 105.81 178.5 107.46 177.41 109.62 172.54 111.11"/><line class="cls-4" x1="170.38" y1="105.36" x2="179.67" y2="101.19"/><polyline class="cls-4" points="174.55 121.66 174.64 123.19 174.69 124.73 174.69 126.27 176.34 127.88 183.12 128.2 184.87 126.43 184.87 124.57 184.81 122.72 184.69 120.87"/><line class="cls-4" x1="184.81" y1="122.72" x2="174.64" y2="123.19"/><polyline class="cls-4" points="179.95 138.5 180.33 136.79 180.66 135.07 180.93 133.35 181.15 131.61"/><polyline class="cls-4" points="176.65 137.71 177.01 136.11 177.31 134.49 177.57 132.87 177.78 131.24"/><polyline class="cls-4" points="170.38 145.64 170.99 144.23 171.55 142.8 172.07 141.35 172.54 139.89 175.79 140.88 176.89 142.99 176.32 144.59 175.7 146.17 176.57 148.42 178.12 149.12 180.4 148.11 181.08 146.38 181.71 144.63 180.66 142.37"/><polyline class="cls-4" points="169.02 157.95 167.99 159.29 166.91 160.6 165.79 161.88 165.86 164.29 167.08 165.47 169.57 165.29 170.79 163.89 171.97 162.46 173.1 160.99 164.94 154.9"/><polyline class="cls-4" points="157.92 171.14 159.33 170.1 160.71 169.02 162.05 167.9 163.36 166.74"/><polyline class="cls-4" points="155.96 168.37 157.28 167.4 158.57 166.39 159.84 165.33 161.06 164.24"/><polyline class="cls-4" points="147.43 173.3 148.91 172.59 150.37 171.83 151.81 171.04 153.22 170.19 152.94 172.99 152.51 175.82 151.94 178.67 147.4 169.55"/><polyline class="cls-4" points="136.89 178.58 135.23 178.91 133.55 179.18 131.87 179.41 130.33 181.27 130.48 182.96 132.47 184.46 134.31 184.22 136.14 183.91 137.96 183.55 135.82 173.6"/><polyline class="cls-4" points="126.68 174.68 126.76 178.07 125.09 181.48 123.21 184.83 121.59 181.35 120.19 177.82 120.54 174.45"/><polyline class="cls-4" points="126.76 178.07 125.11 178.09 123.47 178.05 121.83 177.96 120.19 177.82"/><polyline class="cls-4" points="109.57 179.17 111.25 179.64 112.95 180.06 114.66 180.42 116.38 180.73"/><polyline class="cls-4" points="110.53 175.91 112.12 176.36 113.71 176.75 115.32 177.09 116.94 177.39"/><polyline class="cls-4" points="102.95 169.23 104.33 169.91 105.73 170.55 107.15 171.14 108.58 171.7 107.41 174.88 105.25 175.87 103.68 175.21 102.14 174.5 99.84 175.26 99.07 176.76 99.95 179.1 101.64 179.87 103.35 180.59 105.66 179.66"/><polyline class="cls-4" points="95.05 176.47 93.47 175.49 91.92 174.47 90.41 173.4 88.93 172.28 93.42 169.29 97.68 166.07"/><g class="cls-5"><circle class="cls-1" cx="125.5" cy="125.5" r="100"/><circle class="cls-6" cx="125.5" cy="125.5" r="125"/><circle class="cls-6" cx="125.5" cy="125.5" r="89.1"/></g></svg>