<svg id="Layer_1" data-name="Layer 1" xmlns="http://www.w3.org/2000/svg" viewBox="0 0 451 451"><defs><style>.cls-1,.cls-4,.cls-6{fill:none;}.cls-1,.cls-2,.cls-4,.cls-6{stroke:#fff;}.cls-1,.cls-2,.cls-6{stroke-miterlimit:10;}.cls-2,.cls-3{fill:#fff;}.cls-2,.cls-4{stroke-width:0.5px;}.cls-4{stroke-linecap:square;stroke-miterlimit:1;}.cls-5{opacity:0.2;}.cls-6{stroke-dasharray:2 2;}</style></defs><path id="gearpoly1" class="cls-1" d="M446.25,275h7.28l.28,0,.37,0,.44-.05.53-.07.61-.1.7-.13.77-.16.85-.19L459,274l1-.27,1.09-.33,1.15-.37,1.23-.42,1.29-.49,1.37-.54,1.43-.6,1.49-.67,1.56-.74,1.61-.81,1.67-.88,1.73-1,1.78-1.05,1.82-1.12,1.88-1.21,1.91-1.3,2-1.39,2-1.48,2-1.58,2.06-1.68,2.09-1.77,2.11-1.88,2.13-2,1.08-1,.06-.06h0l-1.2-8.86h0l-.09,0-1.3-.7-2.58-1.35-2.53-1.25L488.35,236l-2.43-1.07-2.37-1-2.32-.9-2.25-.83-2.19-.74-2.13-.67-2.06-.6-2-.54-1.92-.47-1.85-.41-1.77-.35-1.69-.3-1.62-.25-1.54-.2-1.46-.16-1.38-.13-1.29-.08-1.21,0-1.13,0h-1l-1,0-.88,0-.78,0-.7.06-.62.07-.53.07-.44.06-.36.07-.28,0-.19,0-.11,0-6.72,1.85-6.93-20.18,6.45-2.68.1,0,.18-.08.25-.13.32-.17.39-.22.46-.27.53-.32.59-.39.66-.44.71-.51.77-.57.82-.64.88-.71.92-.79,1-.86,1-.94,1.06-1,1.09-1.1,1.12-1.19,1.15-1.28,1.19-1.37,1.2-1.46,1.23-1.54,1.24-1.65,1.26-1.74,1.27-1.83,1.27-1.94,1.28-2,1.27-2.13,1.27-2.24,1.26-2.33,1.25-2.44,1.24-2.54,1.21-2.65.6-1.36,0-.08h0l-4.49-7.73h-.1l-1.48-.15-2.9-.26-2.81-.19-2.74-.12-2.66,0H452l-2.48.06-2.4.1-2.31.15-2.22.2-2.13.23-2.05.27-1.95.3-1.86.32-1.78.36-1.68.37-1.59.39-1.5.4-1.41.41-1.31.41-1.23.42-1.14.41-1.05.41-1,.4-.88.39-.79.36-.71.35-.62.33-.54.3-.47.26-.38.24-.31.19-.23.16-.16.11-.09.06-5.51,4.29-14.12-16L401,149l.07-.08.13-.14.19-.21.23-.28.28-.36.32-.42.36-.5.4-.58.44-.66.46-.74.49-.83.52-.9.53-1,.56-1.07.56-1.17.58-1.26.58-1.35.58-1.43.59-1.53.58-1.63.57-1.71.55-1.81.54-1.9.52-2,.5-2.09.47-2.18.43-2.28.41-2.36.36-2.46.32-2.55.27-2.64.22-2.73.16-2.82.11-2.91,0-1.48v-.1h0l-7.11-5.43h0l-.09,0-1.43.42-2.77.88-2.68.91-2.57.93-2.48,1-2.37,1-2.28,1-2.17,1-2.08,1-2,1-1.88,1-1.79,1-1.69,1-1.59,1-1.5,1-1.41,1-1.32,1-1.24.94-1.14.92-1.06.89-1,.86-.89.81-.82.78-.73.74-.67.69-.59.65-.52.59-.45.54-.39.48L364,119l-.27.36-.21.3-.16.23-.1.16-.06.1-3.45,6.06-19.17-9.37,2.67-6.45,0-.1.07-.19.09-.26.1-.35.13-.44.13-.51.15-.6.14-.69.15-.78.15-.86.14-1,.13-1,.11-1.12.1-1.21.08-1.3,0-1.38,0-1.47V95.55l-.05-1.64-.08-1.72-.13-1.8-.18-1.88-.23-2-.28-2-.34-2.11-.41-2.2-.46-2.27-.54-2.34-.6-2.41L341,70.7l-.76-2.55-.85-2.6-.92-2.67-1-2.73-.54-1.38,0-.09h0l-8.65-2.28h0l-.07.06-1.16.93-2.23,1.87-2.12,1.86-2,1.85L318.7,64.8l-1.82,1.82-1.72,1.79-1.62,1.77L312,71.92l-1.43,1.71-1.35,1.67L308,76.94l-1.17,1.59-1.09,1.55-1,1.5L303.79,83l-.85,1.4-.77,1.34-.71,1.29-.64,1.23-.57,1.16-.52,1.1-.45,1-.4,1-.35.9-.3.82L298,95l-.21.67-.18.59-.13.52-.11.43-.08.36-.06.27,0,.2,0,.1-.87,6.93L275,103.75V96.47l0-.28,0-.37-.05-.44-.07-.53-.1-.61-.13-.7-.16-.77-.19-.85L274,91l-.27-1-.33-1.09L273,87.75l-.42-1.23-.49-1.29-.54-1.37-.6-1.43-.67-1.49-.74-1.56-.81-1.61-.88-1.67-1-1.73-1.05-1.78-1.12-1.82-1.21-1.88L262.23,67l-1.39-2-1.48-2-1.58-2-1.68-2.06-1.77-2.09-1.88-2.11-2-2.13-1-1.08-.06-.06h0l-8.86,1.2h0l0,.09-.7,1.3-1.35,2.58-1.25,2.53L236,61.65l-1.07,2.43-1,2.37-.9,2.32L232.22,71l-.74,2.19-.67,2.13-.6,2.06-.54,2-.47,1.92-.41,1.85-.35,1.77-.3,1.69-.25,1.62-.2,1.54-.16,1.46-.13,1.38-.08,1.29,0,1.21,0,1.13v1l0,1,0,.88,0,.78.06.7.07.62.07.53.06.44.07.36,0,.28,0,.19,0,.11,1.85,6.72-20.18,6.93-2.68-6.45,0-.1-.08-.18-.13-.25-.17-.32-.22-.39-.27-.46-.32-.53-.39-.59-.44-.66-.51-.71-.57-.77-.64-.82-.71-.88-.79-.92-.86-1-.94-1-1-1.06-1.1-1.09-1.19-1.12-1.28-1.15-1.37-1.19L192.29,94l-1.54-1.23L189.1,91.5l-1.74-1.26L185.53,89l-1.94-1.27-2-1.28-2.13-1.27-2.24-1.27-2.33-1.26-2.44-1.25-2.54-1.24-2.65-1.21-1.36-.6-.08,0h0l-7.73,4.49h0v.09l-.15,1.48-.26,2.9-.19,2.81-.12,2.74,0,2.66V98l.06,2.48.1,2.4.15,2.31.2,2.22.23,2.13.27,2,.3,2,.32,1.86.36,1.78.37,1.68.39,1.59.4,1.5.41,1.41.41,1.31.42,1.23.41,1.14.41,1,.4,1,.39.88.36.79.35.71.33.62.3.54.26.47.24.38.19.31.16.23.11.16.06.09,4.29,5.51-16,14.12L149,149l-.08-.07-.14-.13-.21-.19-.28-.23-.36-.28-.42-.32-.5-.36-.58-.4-.66-.44-.74-.46-.83-.49-.9-.52-1-.53L141.2,144l-1.17-.56-1.26-.58-1.35-.58-1.43-.58-1.53-.59-1.63-.58-1.71-.57-1.81-.55-1.9-.54-2-.52-2.09-.5-2.18-.47-2.28-.43-2.36-.41-2.46-.36-2.55-.32-2.64-.27-2.73-.22-2.82-.16-2.91-.11-1.48,0h-.1l-5.43,7.11h0l0,.09.42,1.43.88,2.77.91,2.68.93,2.57,1,2.48,1,2.37,1,2.28,1,2.17,1,2.08,1,2,1,1.88,1,1.79,1,1.69,1,1.59,1,1.5,1,1.41,1,1.32.94,1.24.92,1.14.89,1.06.86,1,.81.89.78.82.74.73.69.67.65.59.59.52.54.45.48.39.43.32.36.27.3.21.23.16.16.1.1.06,6.06,3.45-9.37,19.17-6.45-2.67-.1,0-.19-.07-.26-.09-.35-.1-.44-.13-.51-.13-.6-.15-.69-.14-.78-.15-.86-.15-1-.14-1-.13-1.12-.11-1.21-.1-1.3-.08L98.57,205l-1.47,0H95.55l-1.64.05-1.72.08-1.8.13-1.88.18-2,.23-2,.28-2.11.34-2.2.41-2.27.46-2.34.54-2.41.6L70.7,209l-2.55.76-2.6.85-2.67.92-2.73,1-1.38.54-.09,0h0l-2.28,8.65h0l.06.07.93,1.16,1.87,2.23,1.86,2.12,1.85,2,1.84,1.92,1.82,1.82,1.79,1.72,1.77,1.62L71.92,238l1.71,1.43,1.67,1.35L76.94,242l1.59,1.17,1.55,1.09,1.5,1,1.45.93,1.4.85,1.34.77,1.29.71,1.23.64,1.16.57,1.1.52,1,.45,1,.4.9.35.82.3L95,252l.67.21.59.18.52.13.43.11.36.08.27.06.2,0,.1,0,6.93.87L103.75,275H96.47l-.28,0-.37,0-.44.05-.53.07-.61.1-.7.13-.77.16-.85.19L91,276l-1,.27-1.09.33-1.15.37-1.23.42-1.29.49-1.37.54-1.43.6-1.49.67-1.56.74-1.61.81-1.67.88-1.73,1-1.78,1.05-1.82,1.12-1.88,1.21L67,287.77l-2,1.39-2,1.48-2,1.58-2.06,1.68-2.09,1.77-2.11,1.88-2.13,2-1.08,1-.06.06h0l1.2,8.86h0l.09.05,1.3.7,2.58,1.35,2.53,1.25L61.65,314l2.43,1.07,2.37,1,2.32.9,2.25.83,2.19.74,2.13.67,2.06.6,2,.54,1.92.47,1.85.41,1.77.35,1.69.3,1.62.25,1.54.2,1.46.16,1.38.13,1.29.08,1.21.05,1.13,0h1l1,0,.88,0,.78-.05.7-.06.62-.07.53-.07.44-.06.36-.07.28-.05.19,0,.11,0,6.72-1.85,6.93,20.18-6.45,2.68-.1,0-.18.08-.25.13-.32.17-.39.22-.46.27-.53.32-.59.39-.66.44-.71.51-.77.57-.82.64-.88.71-.92.79-1,.86-1,.94-1.06,1-1.09,1.1-1.12,1.19-1.15,1.28-1.19,1.37L94,357.71l-1.23,1.54L91.5,360.9l-1.26,1.74L89,364.47l-1.27,1.94-1.28,2-1.27,2.13-1.27,2.24-1.26,2.33-1.25,2.44-1.24,2.54-1.21,2.65-.6,1.36,0,.08h0L82.78,392h.1l1.48.15,2.9.26,2.81.19,2.74.12,2.66.05H98l2.48-.06,2.4-.1,2.31-.15,2.22-.2,2.13-.23,2-.27,2-.3,1.86-.32,1.78-.36,1.68-.37,1.59-.39,1.5-.4,1.41-.41,1.31-.41,1.23-.42,1.14-.41,1-.41,1-.4.88-.39.79-.36.71-.35.62-.33.54-.3.47-.26.38-.24.31-.19.23-.16.16-.11.09-.06,5.51-4.29,14.12,16L149,401l-.07.08-.13.14-.19.21-.23.28-.28.36-.32.42-.36.5-.4.58-.44.66-.46.74-.49.83-.52.9-.53,1L144,408.8l-.56,1.17-.58,1.26-.58,1.35-.58,1.43-.59,1.53-.58,1.63-.57,1.71-.55,1.81-.54,1.9-.52,2-.5,2.09-.47,2.18-.43,2.28-.41,2.36-.36,2.46-.32,2.55-.27,2.64-.22,2.73-.16,2.82-.11,2.91,0,1.48v.1h0l7.11,5.43h0l.09,0,1.43-.42,2.77-.88,2.68-.91,2.57-.93,2.48-1,2.37-1,2.28-1,2.17-1,2.08-1,2-1,1.88-1,1.79-1,1.69-1,1.59-1,1.5-1,1.41-1,1.32-1,1.24-.94,1.14-.92,1.06-.89,1-.86.89-.81.82-.78.73-.74.67-.69.59-.65.52-.59.45-.54.39-.48.32-.43.27-.36.21-.3.16-.23.1-.16.06-.1,3.45-6.06,19.17,9.37-2.67,6.45,0,.1-.07.19-.09.26-.1.35-.13.44-.13.51-.15.6-.14.69-.15.78-.15.86-.14.95-.13,1-.11,1.12-.1,1.21-.08,1.3-.05,1.38,0,1.47v1.55l.05,1.64.08,1.72.13,1.8.18,1.88.23,2,.28,2.05.34,2.11.41,2.2.46,2.27.54,2.34.6,2.41.68,2.47.76,2.55.85,2.6.92,2.67,1,2.73.54,1.38,0,.09h0l8.65,2.28h0l.07-.06,1.16-.93,2.23-1.87,2.12-1.86,2-1.85,1.92-1.84,1.82-1.82,1.72-1.79,1.62-1.77,1.53-1.74,1.43-1.71,1.35-1.67,1.25-1.64,1.17-1.59,1.09-1.55,1-1.5.93-1.45.85-1.4.77-1.34.71-1.29.64-1.23.57-1.16.52-1.1.45-1,.4-1,.35-.9.3-.82L252,455l.21-.67.18-.59.13-.52.11-.43.08-.36.06-.27,0-.2,0-.1.87-6.93L275,446.25v7.28l0,.28,0,.37.05.44.07.53.1.61.13.7.16.77.19.85.24.93.27,1,.33,1.09.37,1.15.42,1.23.49,1.29.54,1.37.6,1.43.67,1.49.74,1.56.81,1.61.88,1.67,1,1.73,1.05,1.78,1.12,1.82,1.21,1.88,1.3,1.91,1.39,2,1.48,2,1.58,2,1.68,2.06,1.77,2.09,1.88,2.11,2,2.13,1,1.08.06.06h0l8.86-1.2h0l.05-.09.7-1.3,1.35-2.58,1.25-2.53,1.16-2.49,1.07-2.43,1-2.37.9-2.32.83-2.25.74-2.19.67-2.13.6-2.06.54-2,.47-1.92.41-1.85.35-1.77.3-1.69.25-1.62.2-1.54.16-1.46.13-1.38.08-1.29.05-1.21,0-1.13v-1l0-1,0-.88-.05-.78-.06-.7-.07-.62-.07-.53-.06-.44-.07-.36-.05-.28,0-.19,0-.11-1.85-6.72,20.18-6.93,2.68,6.45,0,.1.08.18.13.25.17.32.22.39.27.46.32.53.39.59.44.66.51.71.57.77.64.82.71.88.79.92.86,1,.94,1,1,1.06,1.1,1.09,1.19,1.12,1.28,1.15,1.37,1.19,1.46,1.2,1.54,1.23,1.65,1.24,1.74,1.26,1.83,1.27,1.94,1.27,2,1.28,2.13,1.27,2.24,1.27,2.33,1.26,2.44,1.25,2.54,1.24,2.65,1.21,1.36.6.08,0h0l7.73-4.49h0v-.09l.15-1.48.26-2.9.19-2.81.12-2.74.05-2.66V452l-.06-2.48-.1-2.4-.15-2.31-.2-2.22-.23-2.13-.27-2.05-.3-1.95-.32-1.86-.36-1.78-.37-1.68-.39-1.59-.4-1.5-.41-1.41-.41-1.31-.42-1.23-.41-1.14-.41-1.05-.4-1-.39-.88-.36-.79-.35-.71-.33-.62-.3-.54-.26-.47-.24-.38-.19-.31-.16-.23-.11-.16-.06-.09-4.29-5.51,16-14.12L401,401l.08.07.14.13.21.19.28.23.36.28.42.32.5.36.58.4.66.44.74.46.83.49.9.52,1,.53,1.07.56,1.17.56,1.26.58,1.35.58,1.43.58,1.53.59,1.63.58,1.71.57,1.81.55,1.9.54,2,.52,2.09.5,2.18.47,2.28.43,2.36.41,2.46.36,2.55.32,2.64.27,2.73.22,2.82.16,2.91.11,1.48,0h.1l5.43-7.11h0l0-.09-.42-1.43-.88-2.77-.91-2.68-.93-2.57-1-2.48-1-2.37-1-2.28-1-2.17-1-2.08-1-2-1-1.88-1-1.79-1-1.69-1-1.59-1-1.5-1-1.41-1-1.32-.94-1.24-.92-1.14-.89-1.06-.86-1-.81-.89-.78-.82-.74-.73-.69-.67-.65-.59-.59-.52-.54-.45-.48-.39-.43-.32-.36-.27-.3-.21-.23-.16-.16-.1-.1-.06-6.06-3.45,9.37-19.17,6.45,2.67.1,0,.19.07.26.09.35.1.44.13.51.13.6.15.69.14.78.15.86.15.95.14,1,.13,1.12.11,1.21.1,1.3.08,1.38,0,1.47,0h1.55l1.64-.05,1.72-.08,1.8-.13,1.88-.18,2-.23,2.05-.28,2.11-.34,2.2-.41,2.27-.46,2.34-.54,2.41-.6,2.47-.68,2.55-.76,2.6-.85,2.67-.92,2.73-1,1.38-.54.09,0h0l2.28-8.65h0l-.06-.07-.93-1.16-1.87-2.23-1.86-2.12-1.85-2-1.84-1.92-1.82-1.82-1.79-1.72-1.77-1.62L478.08,312l-1.71-1.43-1.67-1.35L473.06,308l-1.59-1.17-1.55-1.09-1.5-1-1.45-.93-1.4-.85-1.34-.77-1.29-.71-1.23-.64-1.16-.57-1.1-.52-1-.45-1-.4-.9-.35-.82-.3L455,298l-.67-.21-.59-.18-.52-.13-.43-.11-.36-.08-.27-.06-.2,0-.1,0-6.93-.87Z" transform="translate(-49.5 -49.5)"/><line class="cls-2" x1="235.5" y1="225.5" x2="215.5" y2="225.5"/><line class="cls-2" x1="225.5" y1="235.5" x2="225.5" y2="215.5"/><circle class="cls-3" cx="423.71" cy="198.78" r="9.81"/><polyline class="cls-4" points="237.36 84.75 234.37 84.53 231.37 84.37 228.37 84.28 225.37 84.25"/><line class="cls-4" x1="231.12" y1="90.37" x2="231.62" y2="78.38"/><polyline class="cls-4" points="237.86 78.77 234.56 81.53 231.37 84.37 228.31 87.28 225.38 90.25"/><polyline class="cls-4" points="236.86 90.73 234.18 87.52 231.37 84.37 228.44 81.28 225.37 78.25"/><polyline class="cls-4" points="244.08 79.43 247.62 76.89 244.97 94.69"/><polyline class="cls-4" points="247.75 95.13 244.97 94.69 242.19 94.31"/><polyline class="cls-4" points="284.38 87.27 277.32 103.83 276.4 98.58 275.28 93.31 273.96 88.04 272.44 82.77 266.81 99.87"/><polyline class="cls-4" points="298.43 101.05 295.77 99.53 293.08 98.06 290.36 96.66 287.61 95.31"/><polyline class="cls-4" points="295.4 106.22 292.85 104.77 290.27 103.36 287.66 102.01 285.03 100.72"/><polyline class="cls-4" points="305.28 101.73 309.57 100.97 299.5 115.89"/><polyline class="cls-4" points="301.81 117.49 299.5 115.89 297.15 114.34"/><polyline class="cls-4" points="311.83 113.7 314.18 115.56 316.5 117.47 318.77 119.42 318.97 123.64 316.94 125.85 312.83 126.18 310.7 124.35 308.53 122.56 308.16 118.45 313.66 111.32 317.95 110.89 322.29 110.58 324.71 112.66"/><polyline class="cls-4" points="335.36 136.72 337.22 139.08 339.03 141.47 340.79 143.9 344.99 144.68 347.47 143 348.14 138.7 346.27 136.11 344.34 133.57 342.36 131.07 328.36 142.38"/><line class="cls-4" x1="338.09" y1="156.13" x2="348.31" y2="149.83"/><line class="cls-4" x1="350.86" y1="148.26" x2="353.42" y2="146.68"/><polyline class="cls-4" points="348.73 169.76 344.81 168.45 346.25 164.58 359.64 157.82"/><polyline class="cls-4" points="356.93 166.05 355.64 163.27 354.29 160.52 352.88 157.8 351.41 155.11"/><polyline class="cls-4" points="351.95 186.75 351.1 184.08 350.19 181.42 349.22 178.78 350.99 175.04 356.55 172.81 360.45 174.54 361.5 177.42 362.49 180.32 363.42 183.24"/><polyline class="cls-4" points="359.28 190.64 362.91 192.8 366.51 195.09 367.12 198.09 364.72 201.62 355.85 203.14"/><line class="cls-4" x1="353.48" y1="192.16" x2="370.9" y2="187.62"/><polyline class="cls-4" points="357.72 222.69 357.75 225.5 357.72 228.31 357.63 231.12 360.48 234.11 372.45 234.88 375.61 231.88 375.72 228.69 375.75 225.5 375.72 222.31"/><line class="cls-4" x1="375.75" y1="225.5" x2="357.75" y2="225.5"/><polyline class="cls-4" points="367.12 252.91 367.67 249.89 368.16 246.87 368.58 243.83 368.94 240.79"/><polyline class="cls-4" points="361.23 251.77 361.76 248.88 362.22 245.98 362.63 243.07 362.97 240.15"/><polyline class="cls-4" points="356.79 268.8 357.68 266 358.51 263.19 359.28 260.36 359.99 257.51 363.15 261.36 366.21 265.37 369.16 269.52 351.95 264.25"/><polyline class="cls-4" points="351.61 289.12 350.23 291.79 348.79 294.42 347.3 297.03 348.31 301.17 350.86 302.74 355.06 301.58 356.65 298.81 358.18 296.01 359.64 293.18 343.57 285.07"/><polyline class="cls-4" points="337.7 316.16 339.6 313.76 341.45 311.32 343.24 308.84 344.99 306.32"/><polyline class="cls-4" points="333.03 312.39 334.85 310.09 336.62 307.75 338.34 305.37 340.02 302.95"/><polyline class="cls-4" points="321.12 325.35 323.21 323.3 325.27 321.2 327.28 319.06 329.24 316.88 330.22 321.77 331.04 326.74 331.7 331.79 318.97 319.06"/><polyline class="cls-4" points="307 340.87 304.53 342.57 302.03 344.22 299.49 345.82 298.43 349.95 299.95 352.54 304.2 353.49 306.9 351.79 309.57 350.03 312.19 348.22 301.81 333.51"/><polyline class="cls-4" points="287.46 342.34 290.27 347.64 290.36 354.34 290.19 361.11 284.83 356.98 279.67 352.69 277.32 347.17"/><polyline class="cls-4" points="290.27 347.64 287.66 348.99 285.03 350.28 282.36 351.51 279.67 352.69"/><polyline class="cls-4" points="264.7 364.32 267.64 363.46 270.56 362.53 273.46 361.54 276.34 360.49"/><polyline class="cls-4" points="263.07 358.55 265.89 357.72 268.69 356.83 271.47 355.88 274.22 354.88"/><polyline class="cls-4" points="244.97 356.31 247.75 355.87 250.51 355.36 253.26 354.8 256 354.18 257.39 360.02 255.15 363.6 252.21 364.2 249.26 364.74 246.74 368.18 247.18 371.14 250.78 373.61 253.92 373.04 257.04 372.4 259.46 368.78"/><polyline class="cls-4" points="241.29 374.92 238.12 375.22 234.93 375.45 231.75 375.62 228.56 375.72 231.37 366.63 233.8 357.49"/><g class="cls-5"><circle class="cls-1" cx="225.5" cy="225.5" r="200"/><circle class="cls-6" cx="225.5" cy="225.5" r="225"/><circle class="cls-6" cx="225.5" cy="225.5" r="178.2"/></g></svg>