<svg id="Layer_1" data-name="Layer 1" xmlns="http://www.w3.org/2000/svg" viewBox="0 0 651 651"><defs><style>.cls-1,.cls-2,.cls-4,.cls-6{fill:none;stroke:#fff;}.cls-1,.cls-2,.cls-6{stroke-miterlimit:10;}.cls-2,.cls-4{stroke-width:0.5px;}.cls-3{fill:#fff;}.cls-4{stroke-linecap:square;stroke-miterlimit:1;}.cls-5{opacity:0.2;}.cls-6{stroke-dasharray:2 2;}</style></defs><path id="gearpoly3" class="cls-1" d="M567.67,326l.06-1.11.33-.08.33-.09.34-.09.35-.09.35-.1.37-.1.36-.11.38-.11.38-.11.39-.12.4-.13.4-.12.41-.14.42-.14.42-.14.43-.15.44-.15.44-.16.45-.17.45-.17.47-.17.47-.18.47-.19.48-.19.49-.2.49-.2.5-.21.51-.22.51-.22.52-.23.53-.23.53-.24.53-.25.54-.25.55-.26.55-.27.56-.27.57-.28.57-.29h.05l-.21-5.11h0l-.6-.24-.58-.23-.58-.23-.57-.22-.57-.22-.56-.21-.55-.2-.55-.19-.54-.2-.54-.18-.53-.18-.52-.17-.51-.17-.51-.17L577,310l-.5-.16-.49-.14-.48-.15-.48-.13-.46-.13-.46-.13-.46-.12-.45-.12-.44-.12-.43-.1-.43-.11-.42-.1-.41-.09-.4-.1-.4-.08-.39-.09-.38-.08-.38-.07-.37-.08-.36-.06-.35-.07-.35-.06-.34-.06-.33-.05-.16-1.11-.53-5.7-.05-1.11.32-.12.32-.12.33-.12.34-.13.34-.14.35-.14.35-.14.36-.15.37-.15.38-.16.38-.17.38-.17.4-.17.4-.18.4-.19.42-.19.41-.2.43-.21.43-.21.43-.21.44-.23.45-.22.46-.24.45-.24.47-.25.47-.25.47-.26.49-.27.48-.27.49-.29.5-.28.5-.3.51-.3.51-.31.52-.31.52-.33.53-.33.53-.33.54-.35,0,0h0l-.74-5.06h-.06l-.62-.18-.6-.17-.6-.17-.59-.16-.59-.15-.58-.15-.57-.14-.57-.14-.55-.13-.56-.13-.54-.13-.54-.11L575,284l-.52-.11-.52-.1-.51-.1-.5-.1-.49-.09-.49-.08-.48-.09-.47-.07-.46-.08-.46-.07-.45-.07-.44-.06-.44-.06-.43-.05-.42-.06-.41,0-.4,0-.4,0-.39,0-.38,0-.37,0-.37,0-.36,0-.35,0-.34,0-.34,0-.27-1.08-1.12-5.62-.17-1.1.3-.14.31-.16.31-.16.32-.16.33-.17.33-.17.34-.18.35-.19.35-.19.35-.2.36-.2.37-.21.37-.22.38-.22.39-.23.38-.23.4-.24.4-.25.41-.26.41-.26.41-.26.42-.28.43-.28.43-.29.44-.29.44-.3.44-.31.45-.32.46-.32.46-.33.46-.34.47-.35.47-.35.48-.36.48-.37.49-.37.49-.39.49-.39.5-.4,0,0h0l-1.27-4.95h-.06l-.63-.12-.62-.1L575,259l-.61-.1-.6-.09-.59-.09-.58-.08-.58-.08-.57-.08-.56-.07-.55-.06-.55-.06-.54-.06-.53-.06-.53-.05-.51,0-.51,0-.5,0-.5,0-.48,0-.48,0-.47,0-.46,0-.46,0h-.44l-.44,0h-4.65l-.33,0-.39-1-1.7-5.47-.28-1.08.28-.18.29-.18.3-.19.3-.2.31-.2.31-.21.32-.21.32-.22.33-.23.33-.23L559,248l.34-.25.35-.25.35-.27.36-.26.37-.28.36-.28.38-.29.37-.29.38-.3.39-.31.39-.32.39-.32.4-.33.41-.34.4-.35.41-.35.42-.37.42-.36.42-.38.43-.39.43-.39.43-.4.44-.41.44-.41.44-.43.45-.43.45-.44.45-.45,0,0h0l-1.77-4.8h-.07l-.63,0-.63,0-.62,0-.61,0-.61,0-.6,0-.59,0-.58,0h-4.88l-.5,0h-.49l-.49,0-.48,0-.47,0-.46,0-.45,0-.45,0-.44,0-.43,0-.42,0-.41,0-.41,0-.39,0-.39,0-.38,0-.38,0-.36,0-.36,0-.35.05-.34,0-.33.05-.49-1-2.27-5.26-.39-1.05.27-.2.27-.22.27-.22.28-.22.28-.24.29-.24.3-.24.29-.26.31-.26.3-.27.31-.27.32-.28.32-.29.32-.3.33-.3.33-.31.34-.32.34-.32.35-.34.34-.34.35-.35.36-.35.36-.36.36-.38.36-.37.37-.39.37-.4.38-.4.38-.41.38-.42.38-.43.39-.43.39-.45.39-.45.39-.46.4-.47.4-.47.4-.49.4-.49,0,0v0h0l-2.26-4.58h-.07l-.63,0-.63,0-.63,0-.61,0-.6,0-.6,0-.59,0-.58,0-.57,0-.57.05-.55.05-.55,0-.54.06-.53.06-.52.06-.52.06-.5.07-.5.06-.49.07-.48.07-.48.07-.46.07-.46.08-.45.07L544,210l-.43.08-.42.08-.42.08-.4.08-.4.08-.39.08-.39.09-.37.08-.37.08-.35.09-.35.08-.34.09L539,211l-.32.09-.59-1-2.81-5-.5-1,.24-.23.25-.24.25-.25.25-.26.26-.26.26-.27.27-.27.27-.29.27-.29.28-.29.28-.31.28-.31.29-.32.29-.33.3-.34.3-.34.3-.35.3-.36.31-.37.31-.37.31-.39.32-.39.32-.4.32-.4.32-.42.33-.42.33-.43.33-.44.33-.45.33-.46.34-.46.34-.48.34-.48L545,192l.35-.5.34-.5.35-.52.35-.52.35-.54,0,0v0h0L544,185.06h-.07l-.63.08-.62.09-.61.1-.61.09-.6.1-.59.1-.58.1-.57.1-.57.11-.55.11-.55.1-.54.11-.53.12-.52.11-.52.11-.5.12-.5.12-.49.11-.48.12-.47.12-.46.12-.46.12-.44.13-.44.12-.43.12-.42.12-.42.13-.4.12-.4.12-.38.13-.38.12-.38.12-.36.12-.35.12-.35.13-.34.12-.33.12-.32.11-.32.12-.68-.87L521.51,184l-.6-.94.22-.25.22-.27.22-.27.23-.28.23-.29.23-.29.23-.31.24-.31.24-.31.25-.33.25-.33.25-.34.25-.35.26-.36.25-.36.26-.38.27-.38.26-.39.27-.39.27-.41.27-.41.27-.42.28-.43.27-.44.28-.45.28-.45.28-.47.29-.47.28-.48.29-.49.28-.5.29-.5.29-.52.29-.52.29-.53.29-.54.29-.55.29-.56.29-.57,0,0v0h0l-3.17-4H528l-.62.15-.61.16-.6.15-.6.16-.58.16-.58.16-.56.16-.56.16-.55.17-.54.16-.54.17-.52.16-.52.17-.5.17-.5.17-.49.16-.49.17-.47.17-.46.17-.46.17-.45.17-.44.16-.43.17-.42.17-.42.17-.4.16-.4.17-.39.16-.38.17-.38.16-.36.16-.36.16-.35.16-.34.16-.33.15-.32.16-.32.15-.31.16-.3.15-.77-.8-3.79-4.31-.69-.87.19-.28.19-.28.19-.3.2-.3.19-.31.2-.32.21-.32.2-.33.21-.34.21-.35.21-.36.21-.37.22-.37.21-.38.22-.39.22-.4.22-.41.23-.41.22-.42.23-.43.22-.44.23-.45.23-.46.23-.46.23-.48.23-.48.23-.49.23-.5.24-.51.23-.51.23-.53.23-.53.24-.54.23-.55.23-.56.24-.57.23-.58.23-.58.23-.6,0,0v0h0l-3.57-3.66h0l0,0-.6.21-.59.22-.58.22-.58.22-.56.22-.56.22-.54.22-.54.22-.53.22-.52.22-.52.22-.5.22-.5.22-.48.22-.48.22-.47.22-.46.21-.46.22L500,147l-.44.21-.43.22-.42.21-.41.21-.4.21-.4.21-.38.21-.38.2-.37.21-.36.2-.36.2-.34.2-.34.2-.33.19-.32.2-.32.19-.3.18-.3.19-.29.18-.29.18-.85-.71-4.21-3.88-.78-.8.15-.29.16-.31.16-.31.17-.32.16-.33.17-.34.16-.34.17-.35.17-.36.18-.37.17-.38.17-.39.18-.39.17-.4.18-.41.18-.42.17-.43L490,139l.18-.44.18-.45.18-.46.18-.47.18-.48.18-.49.18-.49.18-.5.18-.52.17-.52.18-.53.18-.53.18-.55.17-.55.18-.57.17-.57.18-.58.17-.59.17-.6.17-.6.17-.62v-.06h0l-3.94-3.27h0l0,0-.58.28-.56.28-.56.28-.54.27-.54.28-.53.28-.52.27-.52.28-.5.27-.5.28-.48.27-.48.27-.47.27-.46.27-.46.27-.44.27-.44.26-.43.26-.42.26-.41.26-.4.26-.4.26-.38.25-.38.25-.37.25-.37.25-.35.24-.35.25-.34.24-.33.23-.32.24-.32.23-.3.23-.3.22-.3.22-.28.22-.28.22-.27.21-.26.21-.93-.62-4.59-3.42-.86-.71.12-.31.13-.32.13-.33.13-.33.13-.35.13-.35.13-.36.13-.37.13-.38.13-.38.13-.39.14-.41.13-.41.13-.41.13-.43.14-.44.13-.44.13-.45.13-.46.13-.47.13-.48.13-.48.13-.5.13-.5.13-.51.12-.52.13-.53.12-.53.12-.55.12-.55.12-.56.12-.57.11-.58.12-.59.11-.6.11-.6.1-.61.11-.62.1-.63v-.06h0l-4.26-2.84h0l0,0-.54.34-.53.33-.53.34-.51.33-.51.34-.5.33-.49.32-.48.33-.47.33-.47.32-.45.32-.45.32-.44.32-.43.32-.42.31-.42.31-.4.31-.4.31-.39.3-.38.3-.38.3-.36.3-.36.29-.35.29-.35.29-.33.28-.33.28-.32.28-.31.27-.3.27-.3.27-.29.26-.28.26-.28.26-.27.25-.26.25-.25.24-.25.24-.23.23-1-.52-4.93-2.92-.93-.61.1-.33.09-.33.09-.34.09-.34.1-.36.09-.36.09-.38.09-.38.1-.38.09-.4.09-.41.09-.41.09-.42.08-.43.09-.44.09-.45.08-.45.09-.46.08-.48.08-.48.08-.48.08-.5.07-.5.08-.52.07-.52.07-.53.07-.54.07-.54.06-.56.06-.56.06-.57.06-.58.05-.59.06-.59,0-.61.05-.61,0-.62,0-.63,0-.63v-.06h0L444.31,95h0l0,0-.5.4-.5.39-.48.38-.48.39-.47.38-.46.38-.45.38-.45.38-.43.37-.43.37-.42.37-.41.37-.41.36-.39.36-.39.35-.38.36-.37.35-.37.34-.35.34-.35.34-.34.34-.33.33-.33.33-.32.33-.31.32-.3.31-.3.32-.29.31-.28.3-.27.3-.27.3-.26.29-.26.29-.24.28-.24.28-.24.27-.22.27-.22.26-.22.26-1-.41-5.21-2.39-1-.52.05-.33.06-.34.06-.34,0-.36.06-.36.05-.37.06-.38.05-.39.05-.4.05-.4,0-.41,0-.42.05-.43,0-.44,0-.44,0-.46,0-.46,0-.47,0-.48,0-.48,0-.5,0-.5,0-.51,0-.51,0-.53v-.54l0-.54V88.3l0-.61,0-.63,0-.63,0-.63v-.06h0l-4.75-1.89h0l0,0-.46.44-.46.44-.44.44-.43.43-.43.43-.42.43-.41.42-.4.42-.4.42-.38.41-.38.41-.37.41-.37.4-.35.4-.35.39-.34.39-.33.39-.33.38-.32.38-.31.38-.3.37-.3.36-.29.36-.28.36-.28.35-.27.35-.26.34-.25.34-.25.33-.24.33-.24.32-.23.32-.22.31-.22.31-.21.3-.2.29-.2.29-.19.29-.18.28-1.07-.3-5.43-1.84-1-.41,0-.33,0-.34,0-.36,0-.35V94l0-.38V89.43l0-.46V88.5l0-.48,0-.48,0-.5,0-.5,0-.51,0-.52,0-.52,0-.53,0-.54,0-.55-.06-.56-.05-.56-.06-.57-.07-.58-.07-.59-.07-.59-.08-.6-.08-.61-.09-.62-.09-.62-.1-.63v-.06h0l-4.92-1.38h0l0,0-.41.49-.41.49-.39.48-.39.47-.38.48-.37.46-.36.47-.36.46-.35.45-.34.46-.34.44-.32.45-.32.43-.31.44-.31.43-.3.42-.29.42-.28.42-.28.4-.27.41-.26.4-.26.39-.25.39-.24.39-.24.37-.23.38-.23.37-.22.36-.21.35-.2.36-.2.34-.2.34-.19.33-.18.33-.18.32-.17.32-.16.31-.16.3-.16.3-1.09-.19-5.59-1.26-1.08-.29v-.68l0-.35,0-.36,0-.37,0-.37,0-.39,0-.39,0-.39,0-.41,0-.41,0-.42-.05-.43-.05-.44-.05-.44-.06-.45-.06-.46-.06-.47-.07-.47-.07-.48-.07-.49-.08-.5-.09-.5-.08-.51-.1-.52-.09-.53-.1-.53-.11-.54-.11-.55-.11-.55-.12-.56-.13-.57-.13-.58-.13-.58L372.8,73l-.15-.59-.15-.61-.16-.61-.16-.61v-.06h0l-5-.86h0l0,0-.36.52-.35.53-.34.52-.34.51-.33.51-.32.51-.31.5-.31.49-.3.49-.29.48-.29.48-.27.48-.28.47-.26.46-.26.46-.25.45-.25.45-.24.44-.23.44-.23.43-.22.42-.21.42-.21.42-.2.4-.2.41-.19.39-.18.39-.18.38-.18.38-.17.37-.16.37-.16.35-.15.36-.15.34-.14.34-.13.33-.14.33-.12.32-.13.31L357,86.32l-5.69-.66-1.1-.19,0-.33-.05-.34-.06-.35L350,84.1l-.06-.36-.07-.37-.06-.38-.08-.39-.07-.39-.08-.4-.08-.4-.09-.42-.09-.42-.09-.43-.1-.43-.1-.45-.11-.45-.11-.45-.12-.47-.12-.47-.12-.48-.13-.48-.14-.5-.14-.5-.15-.5-.15-.51-.15-.52-.16-.53-.17-.53-.17-.54-.18-.55-.19-.55-.19-.56-.19-.56-.2-.57-.21-.58-.21-.59-.22-.59-.23-.59v-.06h0l-5.11-.33h0v0l0,0-.3.56-.29.56-.29.55-.28.54-.27.54-.26.54-.26.53-.26.52-.24.52-.24.52-.24.5-.22.5-.23.5-.21.49-.21.48-.2.48-.2.47-.19.46-.19.46-.18.45-.17.45-.17.44-.17.43-.16.43-.15.42-.15.41-.14.41-.14.4-.13.39-.13.38-.13.38-.12.38-.11.36-.11.36-.11.35-.1.35-.1.34-.09.33-.09.32-1.11,0L326,84.33l-1.11-.06-.08-.33-.09-.33-.09-.34-.09-.35-.1-.35-.1-.37-.11-.36-.11-.38-.11-.38-.12-.39-.13-.4-.12-.4-.14-.41-.14-.42-.14-.42-.15-.43-.15-.44-.16-.44-.17-.45-.17-.45-.17-.47-.18-.47-.19-.47-.19-.48-.2-.49-.2-.49-.21-.5-.22-.51-.22-.51-.23-.52-.23-.53-.24-.53-.25-.53-.25-.54-.26-.55-.27-.55-.27-.56-.28-.57-.29-.57v0h0l-5.11.21h0v0l-.24.6-.23.58-.23.58-.22.57-.22.57-.21.56-.2.55-.19.55-.2.54-.18.54-.18.53-.17.52-.17.51-.17.51L310,75l-.16.5-.14.49-.15.48-.13.48-.13.46-.13.46-.12.46-.12.45-.12.44-.1.43-.11.43-.1.42-.09.41-.1.4-.08.4-.09.39-.08.38-.07.38-.08.37-.06.36-.07.35-.06.35-.06.34-.05.33-1.11.16-5.7.53-1.11,0-.12-.32-.12-.32-.12-.33-.13-.34-.14-.34-.14-.35-.14-.35-.15-.36-.15-.37-.16-.38-.17-.38-.17-.38-.17-.4-.18-.4-.19-.4-.19-.42-.2-.41-.21-.43-.21-.43-.21-.43-.23-.44-.22-.45-.24-.46-.24-.45-.25-.47-.25-.47-.26-.47-.27-.49-.27-.48-.29-.49-.28-.5-.3-.5L293,72l-.31-.51-.31-.52-.33-.52-.33-.53-.33-.53-.35-.54,0,0v0h0l-5.06.74h0v.06l-.18.62-.17.6-.17.6-.16.59-.15.59-.15.58-.14.57-.14.57-.13.55-.13.56-.13.54-.11.54L284,77l-.11.52-.1.52-.1.51-.1.5-.09.49-.08.49-.09.48-.07.47-.08.46-.07.46-.07.45-.06.44-.06.44-.05.43-.06.42,0,.41,0,.4,0,.4,0,.39,0,.38,0,.37,0,.37,0,.36,0,.35,0,.34,0,.34-1.08.27-5.62,1.12-1.1.17-.14-.3-.16-.31-.16-.31-.16-.32-.17-.33-.17-.33-.18-.34-.19-.35-.19-.35-.2-.35-.2-.36-.21-.37-.22-.37-.22-.38-.23-.39-.23-.38-.24-.4-.25-.4-.26-.41-.26-.41-.26-.41-.28-.42-.28-.43-.29-.43-.29-.44-.3-.44-.31-.44-.32-.45L268,78.7l-.33-.46-.34-.46-.35-.47-.35-.47-.36-.48-.37-.48-.37-.49-.39-.49-.39-.49-.4-.5,0,0v0h0l-4.95,1.27h0v.06l-.12.63-.1.62-.1.61-.1.61-.09.6-.09.59-.08.58-.08.58-.08.57-.07.56-.06.55-.06.55-.06.54-.06.53-.05.53,0,.51,0,.51,0,.5,0,.5,0,.48,0,.48,0,.47,0,.46,0,.46v.44l0,.44v4.65l0,.33-1,.39-5.47,1.7-1.08.28-.18-.28-.18-.29-.19-.3-.2-.3-.2-.31-.21-.31-.21-.32-.22-.32-.23-.33-.23-.33L248,93l-.25-.34-.25-.35-.27-.35-.26-.36-.28-.37-.28-.36-.29-.38-.29-.37-.3-.38-.31-.39-.32-.39-.32-.39-.33-.4-.34-.41-.35-.4-.35-.41-.37-.42-.36-.42-.38-.42-.39-.43-.39-.43-.4-.43-.41-.44-.41-.44-.43-.44-.43-.45-.44-.45-.45-.45,0,0h0l-4.8,1.77h0v.06l0,.63,0,.63,0,.62,0,.61,0,.61,0,.6,0,.59,0,.58v4.88l0,.5v.49l0,.49,0,.48,0,.47,0,.46,0,.45,0,.45,0,.44,0,.43,0,.42,0,.41,0,.41,0,.39,0,.39,0,.38,0,.38,0,.36,0,.36.05.35,0,.34.05.33-1,.49-5.26,2.27-1.05.39-.2-.27-.22-.27-.22-.27-.22-.28-.24-.28-.24-.29-.24-.3-.26-.29-.26-.31-.27-.3-.27-.31-.28-.32-.29-.32-.3-.32-.3-.33-.31-.33-.32-.34-.32-.34-.34-.35-.34-.34-.35-.35-.35-.36-.36-.36-.38-.36-.37-.36L219,97.3l-.4-.37-.4-.38-.41-.38-.42-.38-.43-.38-.43-.39-.45-.39-.45-.39-.46-.39-.47-.4-.47-.4-.49-.4-.49-.4,0,0h0l-4.58,2.26h0v.06l0,.63,0,.63,0,.63,0,.61,0,.6,0,.6,0,.59,0,.58,0,.57.05.57.05.55,0,.55.06.54.06.53.06.52.06.52.07.5.06.5.07.49.07.48.07.48.07.46.08.46.07.45.08.44.08.43.08.42.08.42.08.4.08.4.08.39.09.39.08.37.08.37.09.35.08.35.09.34.08.34.09.32-1,.59-5,2.81-1,.5-.23-.24-.24-.25-.25-.25-.26-.25-.26-.26-.27-.26-.27-.27-.29-.27-.29-.27-.29-.28-.31-.28-.31-.28-.32-.29-.33-.29-.34-.3-.34-.3-.35-.3-.36-.3-.37-.31-.37-.31-.39-.31-.39-.32-.4-.32-.4-.32-.42-.32-.42-.33-.43-.33-.44-.33-.45-.33-.46-.33-.46-.34-.48-.34-.48-.34-.49-.34-.5-.35-.5-.34-.52-.35-.52-.35-.54-.35,0,0h0L185.06,108h0v.06l.08.63.09.62.1.61.09.61.1.6.1.59.1.58.1.57.11.57.11.55.1.55.11.54.12.53.11.52.11.52.12.5.12.5.11.49.12.48.12.47.12.46.12.46.13.44.12.44.12.43.12.42.13.42.12.4.12.4.13.38.12.38.12.38.12.36.12.35.13.35.12.34.12.33.11.32.12.32-.87.68L184,130.49l-.94.6-.25-.22-.27-.22-.27-.22-.28-.23-.29-.23-.29-.23-.31-.23-.31-.24-.31-.24-.33-.25-.33-.25-.34-.25-.35-.25-.36-.26-.36-.25-.38-.26-.38-.27-.39-.26-.39-.27-.41-.27-.41-.27-.42-.27-.43-.28-.44-.27-.45-.28-.45-.28-.47-.28-.47-.29-.48-.28-.49-.29-.5-.28-.5-.29-.52-.29-.52-.29-.53-.29-.54-.29-.55-.29-.56-.29-.57-.29,0,0h0l-4,3.17h0V124l.15.62.16.61.15.6.16.6.16.58.16.58.16.56.16.56.17.55.16.54.17.54.16.52.17.52.17.5.17.5.16.49.17.49.17.47.17.46.17.46.17.45.16.44.17.43.17.42.17.42.16.4.17.4.16.39.17.38.16.38.16.36.16.36.16.35.16.34.15.33.16.32.15.32.16.31.15.3-.8.77-4.31,3.79-.87.69-.28-.19-.28-.19-.3-.19-.3-.2-.31-.19-.32-.2-.32-.21-.33-.2-.34-.21-.35-.21-.36-.21-.37-.21-.37-.22-.38-.21-.39-.22-.4-.22-.41-.22-.41-.23-.42-.22-.43-.23-.44-.22-.45-.23-.46-.23-.46-.23-.48-.23-.48-.23-.49-.23-.5-.23-.51-.24-.51-.23-.53-.23-.53-.23-.54-.24-.55-.23-.56-.23-.57-.24-.58-.23-.58-.23-.6-.23,0,0h0l-3.66,3.57h0v0l0,0,.21.6.22.59.22.58.22.58.22.56.22.56.22.54.22.54.22.53.22.52.22.52.22.5.22.5.22.48.22.48.22.47.21.46.22.46.22.44.21.44.22.43.21.42.21.41.21.4.21.4.21.38.2.38.21.37.2.36.2.36.2.34.2.34.19.33.2.32.19.32.18.3.19.3.18.29.18.29-.71.85-3.88,4.21-.8.78-.29-.15-.31-.16-.31-.16-.32-.17-.33-.16-.34-.17-.34-.16-.35-.17-.36-.17-.37-.18-.38-.17-.39-.17-.39-.18-.4-.17-.41-.18-.42-.18-.43-.17L139,162l-.44-.18-.45-.18-.46-.18-.47-.18-.48-.18-.49-.18-.49-.18-.5-.18-.52-.18-.52-.17-.53-.18-.53-.18-.55-.18-.55-.17-.57-.18-.57-.17-.58-.18-.59-.17-.6-.17-.6-.17-.62-.17h-.06l-3.27,3.94h0v0l0,0,.28.58.28.56.28.56.27.54.28.54.28.53.27.52.28.52.27.5.28.5.27.48.27.48.27.47.27.46.27.46.27.44.26.44.26.43.26.42.26.41.26.4.26.4.25.38.25.38.25.37.25.37.24.35.25.35.24.34.23.33.24.32.23.32.23.3.22.3.22.3.22.28.22.28.21.27.21.26-.62.93L130.49,184l-.71.86-.31-.12-.32-.13-.33-.13-.33-.13-.35-.13-.35-.13-.36-.13-.37-.13-.38-.13-.38-.13-.39-.13-.41-.14-.41-.13-.41-.13-.43-.13-.44-.14-.44-.13-.45-.13-.46-.13-.47-.13-.48-.13-.48-.13-.5-.13-.5-.13-.51-.13-.52-.12-.53-.13-.53-.12-.55-.12-.55-.12-.56-.12-.57-.12-.58-.11-.59-.12-.6-.11-.6-.11-.61-.1-.62-.11-.63-.1h-.06l-2.84,4.26h0l0,0,.34.54.33.53.34.53.33.51.34.51.33.5.32.49.33.48.33.47.32.47.32.45.32.45.32.44.32.43.31.42.31.42.31.4.31.4.3.39.3.38.3.38.3.36.29.36.29.35.29.35.28.33.28.33.28.32.27.31.27.3.27.3.26.29.26.28.26.28.25.27.25.26.24.25.24.25.23.23-.52,1-2.92,4.93-.61.93-.33-.1-.33-.09-.34-.09-.34-.09-.36-.1-.36-.09-.38-.09-.38-.09-.38-.1-.4-.09-.41-.09-.41-.09-.42-.09-.43-.08-.44-.09-.45-.09-.45-.08-.46-.09-.48-.08-.48-.08-.48-.08-.5-.08-.5-.07-.52-.08-.52-.07-.53-.07-.54-.07-.54-.07-.56-.06-.56-.06-.57-.06-.58-.06-.59,0-.59-.06-.61,0-.61-.05-.62,0-.63,0-.63,0h-.07L95,207.69h0v0l0,0,.4.5.39.5.38.48.39.48.38.47.38.46.38.45.38.45.37.43.37.43.37.42.37.41.36.41.36.39.35.39.36.38.35.37.34.37.34.35.34.35.34.34.33.33.33.33.33.32.32.31.31.3.32.3.31.29.3.28.3.27.3.27.29.26.29.26.28.24.28.24.27.24.27.22.26.22.26.22-.41,1-2.39,5.21-.52,1-.33-.05-.34-.06-.34-.06-.36-.05-.36-.06-.37,0-.38-.06-.39-.05-.4-.05-.4,0-.41-.05-.42,0-.43-.05-.44,0-.44,0-.46,0-.46,0-.47,0-.48,0-.48,0-.5,0-.5,0-.51,0-.51,0-.53,0h-.54l-.54,0H88.3l-.61,0-.63,0-.63,0-.63,0h-.07l-1.89,4.75h0v0l0,0,.44.46.44.46.44.44.43.43.43.43.43.42.42.41.42.4.42.4.41.38.41.38.41.37.4.37.4.35.39.35.39.34.39.33.38.33.38.32.38.31.37.3.36.3.36.29.36.28.35.28.35.27.34.26.34.25.33.25.33.24.32.24.32.23.31.22.31.22.3.21.29.2.29.2.29.19.28.18-.3,1.07-1.84,5.43-.41,1-.33,0-.34,0-.36,0-.35,0H94l-.38,0H89.43l-.46,0H88.5l-.48,0-.48,0-.5,0-.5,0-.51,0-.52,0-.52,0-.53,0-.54.05-.55,0-.56.06-.56,0-.57.06-.58.07-.59.07-.59.07-.6.08-.61.08-.62.09-.62.09-.63.1h-.06l-1.38,4.92h0l0,0,.49.41.49.41.48.39.47.39.48.38.46.37.47.36.46.36.45.35.46.34.44.34.45.32.43.32.44.31.43.31.42.3.42.29.42.28.4.28.41.27.4.26.39.26.39.25.39.24.37.24.38.23.37.23.36.22.35.21.36.2.34.2.34.2.33.19.33.18.32.18.32.17.31.16.3.16.3.16-.19,1.09-1.26,5.59-.29,1.08h-.68l-.35,0-.36,0-.37,0-.37,0-.39,0-.39,0L86,277l-.41,0-.41,0-.42,0-.43.05-.44.05-.44.05-.45.06-.46.06-.47.06-.47.07-.48.07-.49.07-.5.08-.5.09-.51.08-.52.1-.53.09-.53.1-.54.11-.55.11-.55.11-.56.12-.57.13-.58.13-.58.13-.59.14-.59.15-.61.15-.61.16-.61.16h-.07l-.86,5h0l0,0,.52.36.53.35.52.34.51.34.51.33.51.32.5.31.49.31.49.3.48.29.48.29.48.27.47.28.46.26.46.26.45.25.45.25.44.24.44.23.43.23.42.22.42.21.42.21.4.2.41.2.39.19.39.18.38.18.38.18.37.17.37.16.35.16.36.15.34.15.34.14.33.13.33.14.32.12.31.13-.08,1.11-.66,5.69-.19,1.1-.33,0-.34.05-.35.06-.35.05-.36.06-.37.07-.38.06-.39.08-.39.07-.4.08-.4.08-.42.09-.42.09-.43.09-.43.1-.45.1-.45.11-.45.11-.47.12-.47.12-.48.12-.48.13-.5.14-.5.14-.5.15-.51.15-.52.15-.53.16-.53.17-.54.17-.55.18-.55.19-.56.19-.56.19-.57.2-.58.21-.59.21-.59.22-.59.23h-.06l-.33,5.11h0l0,0,.56.3.56.29.55.29.54.28.54.27.54.26.53.26.52.26.52.24.52.24.5.24.5.22.5.23.49.21.48.21.48.2.47.2.46.19.46.19.45.18.45.17.44.17.43.17.43.16.42.15.41.15.41.14.4.14.39.13.38.13.38.13.38.12.36.11.36.11.35.11.35.1.34.1.33.09.32.09,0,1.11L84.33,326l-.06,1.11-.33.08-.33.09-.34.09-.35.09-.35.1-.37.1-.36.11-.38.11-.38.11-.39.12-.4.13-.4.12-.41.14-.42.14-.42.14-.43.15-.44.15-.44.16-.45.17-.45.17-.47.17-.47.18-.47.19-.48.19-.49.2-.49.2-.5.21-.51.22-.51.22-.52.23-.53.23-.53.24-.53.25-.54.25-.55.26-.55.27-.56.27-.57.28-.57.29h0l.21,5.11h0l.6.24.58.23.58.23.57.22.57.22.56.21.55.2.55.19.54.2.54.18.53.18.52.17.51.17.51.17.5.15.5.16.49.14.48.15.48.13.46.13.46.13.46.12.45.12.44.12.43.1.43.11.42.1.41.09.4.1.4.08.39.09.38.08.38.07.37.08.36.06.35.07.35.06.34.06.33.05.16,1.11.53,5.7,0,1.11-.32.12-.32.12-.33.12-.34.13-.34.14-.35.14-.35.14-.36.15-.37.15-.38.16-.38.17-.38.17-.4.17-.4.18-.4.19-.42.19-.41.2-.43.21-.43.21-.43.21-.44.23-.45.22-.46.24-.45.24-.47.25-.47.25-.47.26-.49.27-.48.27-.49.29-.5.28-.5.3L72,359l-.51.31-.52.31-.52.33-.53.33-.53.33-.54.35,0,0h0l.74,5.06h.06l.62.18.6.17.6.17.59.16.59.15.58.15.57.14.57.14.55.13.56.13.54.13.54.11L77,368l.52.11.52.1.51.1.5.1.49.09.49.08.48.09.47.07.46.08.46.07.45.07.44.06.44.06.43.05.42.06.41,0,.4,0,.4,0,.39,0,.38,0,.37,0,.37,0,.36,0,.35,0,.34,0,.34,0,.27,1.08,1.12,5.62.17,1.1-.3.14-.31.16-.31.16-.32.16-.33.17-.33.17-.34.18-.35.19-.35.19-.35.2-.36.2-.37.21-.37.22-.38.22-.39.23-.38.23-.4.24-.4.25-.41.26-.41.26-.41.26-.42.28-.43.28-.43.29-.44.29-.44.3-.44.31-.45.32-.46.32-.46.33-.46.34-.47.35-.47.35-.48.36-.48.37-.49.37-.49.39-.49.39-.5.4,0,0h0l1.27,4.95h.06l.63.12.62.1.61.1.61.1.6.09.59.09.58.08.58.08.57.08.56.07.55.06.55.06.54.06.53.06.53.05.51,0,.51,0,.5,0,.5,0,.48,0,.48,0,.47,0,.46,0,.46,0h.44l.44,0h4.65l.33,0,.39,1,1.7,5.47.28,1.08-.28.18-.29.18-.3.19-.3.2-.31.2-.31.21-.32.21-.32.22-.33.23-.33.23-.34.24-.34.25-.35.25-.35.27-.36.26-.37.28-.36.28-.38.29-.37.29-.38.3-.39.31-.39.32-.39.32-.4.33-.41.34-.4.35-.41.35-.42.37-.42.36-.42.38-.43.39-.43.39-.43.4-.44.41-.44.41-.44.43-.45.43-.45.44-.45.45,0,0h0l1.77,4.8h.07l.63,0,.63,0,.62,0,.61,0,.61,0,.6,0,.59,0,.58,0h4.88l.5,0h.49l.49,0,.48,0,.47,0,.46,0,.45,0,.45,0,.44,0,.43,0,.42,0,.41,0,.41,0,.39,0,.39-.05.38,0,.38-.05.36,0,.36-.05.35-.05.34-.05.33-.05.49,1,2.27,5.26.39,1-.27.2-.27.22-.27.22-.28.22-.28.24-.29.24-.3.24-.29.26-.31.26-.3.27-.31.27-.32.28-.32.29-.32.3-.33.3-.33.31-.34.32-.34.32-.35.34-.34.34-.35.35-.36.35-.36.36-.36.38-.36.37-.37.39-.37.4-.38.4-.38.41-.38.42-.38.43-.39.43-.39.45-.39.45-.39.46-.4.47-.4.47-.4.49-.4.49,0,0v0h0l2.26,4.58h.07l.63,0,.63,0,.63,0,.61,0,.6,0,.6,0,.59,0,.58-.05.57,0,.57-.05.55,0,.55-.05.54-.06.53-.06.52-.06.52-.06.5-.07.5-.06.49-.07.48-.07.48-.07.46-.07.46-.08.45-.07.44-.08.43-.08.42-.08.42-.08.4-.08.4-.08.39-.08.39-.09.37-.08.37-.08.35-.09.35-.08.34-.09L113,441l.32-.09.59.95,2.81,5,.5,1-.24.23-.25.24-.25.25-.25.26-.26.26-.26.27-.27.27-.27.29-.27.29-.28.29-.28.31-.28.31-.29.32-.29.33-.3.34-.3.34-.3.35-.3.36-.31.37-.31.37-.31.39-.32.39-.32.4-.32.4-.32.42-.33.42-.33.43-.33.44-.33.45-.33.46-.34.46-.34.48-.34.48-.34.49-.35.5-.34.5-.35.52-.35.52-.35.54,0,0v0h0l2.73,4.32h.07l.63-.08.62-.09.61-.1.61-.09.6-.1.59-.1.58-.1.57-.1.57-.11L114,466l.55-.1.54-.11.53-.12.52-.11.52-.11.5-.12.5-.12.49-.11.48-.12.47-.12.46-.12.46-.12.44-.13.44-.12.43-.12.42-.12.42-.13.4-.12.4-.12.38-.13.38-.12.38-.12.36-.12.35-.12.35-.13.34-.12.33-.12.32-.11.32-.12.68.87,3.32,4.68.6.94-.22.25-.22.27-.22.27-.23.28-.23.29-.23.29-.23.31-.24.31-.24.31-.25.33-.25.33-.25.34-.25.35-.26.36-.25.36-.26.38-.27.38-.26.39-.27.39-.27.41-.27.41-.27.42-.28.43-.27.44-.28.45-.28.45-.28.47-.29.47-.28.48-.29.49-.28.5-.29.5-.29.52-.29.52-.29.53-.29.54-.29.55-.29.56-.29.57,0,0v0h0l3.17,4H124l.62-.15.61-.16.6-.15.6-.16.58-.16.58-.16.56-.16.56-.16.55-.17.54-.16.54-.17.52-.16.52-.17.5-.17.5-.17.49-.16.49-.17.47-.17.46-.17.46-.17.45-.17.44-.16.43-.17.42-.17.42-.17.4-.16.4-.17.39-.16.38-.17.38-.16.36-.16.36-.16.35-.16.34-.16.33-.15.32-.16.32-.15.31-.16.3-.15.77.8,3.79,4.31.69.87-.19.28-.19.28-.19.3-.2.3-.19.31-.2.32-.21.32-.2.33-.21.34-.21.35-.21.36-.21.37-.22.37-.21.38-.22.39-.22.4-.22.41-.23.41-.22.42-.23.43-.22.44-.23.45-.23.46-.23.46-.23.48-.23.48-.23.49-.23.5-.24.51-.23.51-.23.53-.23.53-.24.54-.23.55-.23.56-.24.57-.23.58-.23.58-.23.6,0,0v0h0l3.57,3.66h0l0,0,.6-.21.59-.22.58-.22.58-.22.56-.22.56-.22.54-.22.54-.22.53-.22.52-.22.52-.22.5-.22.5-.22.48-.22.48-.22.47-.22.46-.21.46-.22.44-.22.44-.21.43-.22.42-.21.41-.21.4-.21.4-.21.38-.21.38-.2.37-.21.36-.2.36-.2.34-.2.34-.2.33-.19.32-.2.32-.19.3-.18.3-.19.29-.18.29-.18.85.71,4.21,3.88.78.8-.15.29-.16.31-.16.31-.17.32-.16.33-.17.34-.16.34-.17.35-.17.36-.18.37-.17.38-.17.39-.18.39-.17.4-.18.41-.18.42-.17.43L162,513l-.18.44-.18.45-.18.46-.18.47-.18.48-.18.49-.18.49-.18.5-.18.52-.17.52-.18.53-.18.53-.18.55-.17.55-.18.57-.17.57-.18.58-.17.59-.17.6-.17.6-.17.62v.06h0l3.94,3.27h0l0,0,.58-.28.56-.28.56-.28.54-.27.54-.28.53-.28.52-.27.52-.28.5-.27.5-.28.48-.27.48-.27.47-.27.46-.27.46-.27.44-.27.44-.26.43-.26.42-.26.41-.26.4-.26.4-.26.38-.25.38-.25.37-.25.37-.25.35-.24.35-.25.34-.24.33-.23.32-.24.32-.23.3-.23.3-.22.3-.22.28-.22.28-.22.27-.21.26-.21.93.62,4.59,3.42.86.71-.12.31-.13.32-.13.33-.13.33-.13.35-.13.35-.13.36-.13.37-.13.38-.13.38-.13.39-.14.41-.13.41-.13.41-.13.43-.14.44-.13.44-.13.45-.13.46-.13.47-.13.48-.13.48-.13.5-.13.5-.13.51-.12.52-.13.53-.12.53-.12.55-.12.55-.12.56-.12.57-.11.58-.12.59-.11.6-.11.6-.1.61-.11.62-.1.63v.06h0l4.26,2.84h0l0,0,.54-.34.53-.33.53-.34.51-.33.51-.34.5-.33.49-.32.48-.33.47-.33.47-.32.45-.32.45-.32.44-.32.43-.32.42-.31.42-.31.4-.31.4-.31.39-.3.38-.3.38-.3.36-.3.36-.29.35-.29.35-.29.33-.28.33-.28.32-.28.31-.27.3-.27.3-.27.29-.26.28-.26.28-.26.27-.25.26-.25.25-.24.25-.24.23-.23,1,.52,4.93,2.92.93.61-.1.33-.09.33-.09.34-.09.34-.1.36-.09.36-.09.38-.09.38-.1.38-.09.4-.09.41-.09.41-.09.42-.08.43-.09.44-.09.45-.08.45-.09.46-.08.48-.08.48-.08.48-.08.5-.07.5-.08.52-.07.52-.07.53-.07.54-.07.54-.06.56-.06.56-.06.57-.06.58,0,.59-.06.59,0,.61-.05.61,0,.62,0,.63,0,.63v.06h0l4.53,2.37h0l0,0,.5-.4.5-.39.48-.38.48-.39.47-.38.46-.38.45-.38.45-.38.43-.37.43-.37.42-.37.41-.37.41-.36.39-.36.39-.35.38-.36.37-.35.37-.34.35-.34.35-.34.34-.34.33-.33.33-.33.32-.33.31-.32.3-.31.3-.32.29-.31.28-.3.27-.3.27-.3.26-.29.26-.29.24-.28.24-.28.24-.27.22-.27.22-.26.22-.26,1,.41,5.21,2.39,1,.52-.05.33-.06.34-.06.34-.05.36-.06.36,0,.37-.06.38-.05.39-.05.4,0,.4-.05.41,0,.42-.05.43,0,.44,0,.44,0,.46,0,.46,0,.47,0,.48,0,.48,0,.5,0,.5,0,.51,0,.51,0,.53v.54l0,.54v4.62l0,.61,0,.63,0,.63,0,.63v.06h0l4.75,1.89h0l0,0,.46-.44.46-.44.44-.44.43-.43.43-.43.42-.43.41-.42.4-.42.4-.42.38-.41.38-.41.37-.41.37-.4.35-.4.35-.39.34-.39.33-.39.33-.38.32-.38.31-.38.3-.37.3-.36.29-.36.28-.36.28-.35.27-.35.26-.34.25-.34.25-.33.24-.33.24-.32.23-.32.22-.31.22-.31.21-.3.2-.29.2-.29.19-.29.18-.28,1.07.3,5.43,1.84,1,.41,0,.33,0,.34,0,.36,0,.35V558l0,.38v4.19l0,.46v.47l0,.48,0,.48,0,.5,0,.5,0,.51,0,.52,0,.52,0,.53.05.54,0,.55.06.56,0,.56.06.57.07.58.07.59.07.59.08.6.08.61.09.62.09.62.1.63v.06h0l4.92,1.38h0l0,0,.41-.49.41-.49.39-.48.39-.47.38-.48.37-.46.36-.47.36-.46.35-.45.34-.46.34-.44.32-.45.32-.43.31-.44.31-.43.3-.42.29-.42.28-.42.28-.4.27-.41.26-.4.26-.39.25-.39.24-.39.24-.37.23-.38.23-.37.22-.36.21-.35.2-.36.2-.34.2-.34.19-.33.18-.33.18-.32.17-.32.16-.31.16-.3.16-.3,1.09.19,5.59,1.26,1.08.29v.68l0,.35,0,.36,0,.37,0,.37,0,.39,0,.39,0,.39,0,.41,0,.41,0,.42.05.43.05.44.05.44.06.45.06.46.06.47.07.47.07.48.07.49.08.5.09.5.08.51.1.52.09.53.1.53.11.54.11.55.11.55.12.56.13.57.13.58.13.58.14.59.15.59.15.61.16.61.16.61v.06h0l5,.86h0l0,0,.36-.52.35-.53.34-.52.34-.51.33-.51.32-.51.31-.5.31-.49.3-.49.29-.48.29-.48.27-.48.28-.47.26-.46.26-.46.25-.45.25-.45.24-.44.23-.44.23-.43.22-.42.21-.42.21-.42.2-.4.2-.41.19-.39.18-.39.18-.38.18-.38.17-.37.16-.37.16-.35.15-.36.15-.34.14-.34.13-.33.14-.33.12-.32.13-.31,1.11.08,5.69.66,1.1.19,0,.33.05.34.06.35.05.35.06.36.07.37.06.38.08.39.07.39.08.4.08.4.09.42.09.42.09.43.1.43.1.45.11.45.11.45.12.47.12.47.12.48.13.48.14.5.14.5.15.5.15.51.15.52.16.53.17.53.17.54.18.55.19.55.19.56.19.56.2.57.21.58.21.59.22.59.23.59v.06h0l5.11.33h0v0l0,0,.3-.56.29-.56.29-.55.28-.54.27-.54.26-.54.26-.53.26-.52.24-.52.24-.52.24-.5.22-.5.23-.5.21-.49.21-.48.2-.48.2-.47.19-.46.19-.46.18-.45.17-.45.17-.44.17-.43.16-.43.15-.42.15-.41.14-.41.14-.4.13-.39.13-.38.13-.38.12-.38.11-.36.11-.36.11-.35.1-.35.1-.34.09-.33.09-.32,1.11,0,5.73.07,1.11.06.08.33.09.33.09.34.09.35.1.35.1.37.11.36.11.38.11.38.12.39.13.4.12.4.14.41.14.42.14.42.15.43.15.44.16.44.17.45.17.45.17.47.18.47.19.47.19.48.2.49.2.49.21.5.22.51.22.51.23.52.23.53.24.53.25.53.25.54.26.55.27.55.27.56.28.57.29.57v.05h0l5.11-.21h0v0l.24-.6.23-.58.23-.58.22-.57.22-.57.21-.56.2-.55.19-.55.2-.54.18-.54.18-.53.17-.52.17-.51.17-.51.15-.5.16-.5.14-.49.15-.48.13-.48.13-.46.13-.46.12-.46.12-.45.12-.44.1-.43.11-.43.1-.42.09-.41.1-.4.08-.4.09-.39.08-.38.07-.38.08-.37.06-.36.07-.35.06-.35.06-.34.05-.33,1.11-.16,5.7-.53,1.11-.05.12.32.12.32.12.33.13.34.14.34.14.35.14.35.15.36.15.37.16.38.17.38.17.38.17.4.18.4.19.4.19.42.2.41.21.43.21.43.21.43.23.44.22.45.24.46.24.45.25.47.25.47.26.47.27.49.27.48.29.49.28.5.3.5.3.51.31.51.31.52.33.52.33.53.33.53.35.54,0,0v0h0l5.06-.74h0v-.06l.18-.62.17-.6.17-.6.16-.59.15-.59.15-.58.14-.57.14-.57.13-.55.13-.56.13-.54.11-.54L368,575l.11-.52.1-.52.1-.51.1-.5.09-.49.08-.49.09-.48.07-.47.08-.46.07-.46.07-.45.06-.44.06-.44.05-.43.06-.42,0-.41,0-.4,0-.4,0-.39,0-.38,0-.37,0-.37,0-.36,0-.35,0-.34,0-.34,1.08-.27,5.62-1.12,1.1-.17.14.3.16.31.16.31.16.32.17.33.17.33.18.34.19.35.19.35.2.35.2.36.21.37.22.37.22.38.23.39.23.38.24.4.25.4.26.41.26.41.26.41.28.42.28.43.29.43.29.44.3.44.31.44.32.45.32.46.33.46.34.46.35.47.35.47.36.48.37.48.37.49.39.49.39.49.4.5,0,0v0h0l4.95-1.27h0v-.06l.12-.63.1-.62.1-.61.1-.61.09-.6.09-.59.08-.58.08-.58.08-.57.07-.56.06-.55.06-.55.06-.54.06-.53.05-.53,0-.51,0-.51,0-.5,0-.5,0-.48,0-.48,0-.47,0-.46,0-.46v-.44l0-.44v-4.65l0-.33,1-.39,5.47-1.7,1.08-.28.18.28.18.29.19.3.2.3.2.31.21.31.21.32.22.32.23.33.23.33.24.34.25.34.25.35.27.35.26.36.28.37.28.36.29.38.29.37.3.38.31.39.32.39.32.39.33.4.34.41.35.4.35.41.37.42.36.42.38.42.39.43.39.43.4.43.41.44.41.44.43.44.43.45.44.45.45.45,0,0h0l4.8-1.77h0v-.06l0-.63,0-.63,0-.62,0-.61,0-.61,0-.6,0-.59,0-.58v-4.88l0-.5v-.49l0-.49,0-.48,0-.47,0-.46,0-.45,0-.45,0-.44,0-.43,0-.42,0-.41,0-.41,0-.39-.05-.39,0-.38-.05-.38,0-.36-.05-.36-.05-.35-.05-.34-.05-.33,1-.49,5.26-2.27,1-.39.2.27.22.27.22.27.22.28.24.28.24.29.24.3.26.29.26.31.27.3.27.31.28.32.29.32.3.32.3.33.31.33.32.34.32.34.34.35.34.34.35.35.35.36.36.36.38.36.37.36.39.37.4.37.4.38.41.38.42.38.43.38.43.39.45.39.45.39.46.39.47.4.47.4.49.4.49.4,0,0h0l4.58-2.26h0v-.06l0-.63,0-.63,0-.63,0-.61,0-.6,0-.6,0-.59-.05-.58,0-.57-.05-.57,0-.55-.05-.55-.06-.54-.06-.53-.06-.52-.06-.52-.07-.5-.06-.5-.07-.49-.07-.48-.07-.48-.07-.46-.08-.46-.07-.45-.08-.44-.08-.43-.08-.42-.08-.42-.08-.4-.08-.4-.08-.39-.09-.39-.08-.37-.08-.37-.09-.35-.08-.35-.09-.34L441,539l-.09-.32.95-.59,5-2.81,1-.5.23.24.24.25.25.25.26.25.26.26.27.26.27.27.29.27.29.27.29.28.31.28.31.28.32.29.33.29.34.3.34.3.35.3.36.3.37.31.37.31.39.31.39.32.4.32.4.32.42.32.42.33.43.33.44.33.45.33.46.33.46.34.48.34.48.34.49.34.5.35.5.34.52.35.52.35.54.35,0,0h0l4.32-2.73h0v-.06l-.08-.63-.09-.62-.1-.61-.09-.61-.1-.6-.1-.59-.1-.58-.1-.57-.11-.57L466,538l-.1-.55-.11-.54-.12-.53-.11-.52-.11-.52-.12-.5-.12-.5-.11-.49-.12-.48-.12-.47-.12-.46-.12-.46-.13-.44-.12-.44-.12-.43-.12-.42-.13-.42-.12-.4-.12-.4-.13-.38-.12-.38-.12-.38-.12-.36-.12-.35-.13-.35-.12-.34-.12-.33-.11-.32-.12-.32.87-.68,4.68-3.32.94-.6.25.22.27.22.27.22.28.23.29.23.29.23.31.23.31.24.31.24.33.25.33.25.34.25.35.25.36.26.36.25.38.26.38.27.39.26.39.27.41.27.41.27.42.27.43.28.44.27.45.28.45.28.47.28.47.29.48.28.49.29.5.28.5.29.52.29.52.29.53.29.54.29.55.29.56.29.57.29,0,0h0l4-3.17h0V528l-.15-.62-.16-.61-.15-.6-.16-.6-.16-.58-.16-.58-.16-.56-.16-.56-.17-.55-.16-.54-.17-.54-.16-.52-.17-.52-.17-.5-.17-.5-.16-.49-.17-.49-.17-.47-.17-.46-.17-.46-.17-.45-.16-.44-.17-.43-.17-.42-.17-.42-.16-.4-.17-.4-.16-.39-.17-.38-.16-.38-.16-.36-.16-.36-.16-.35-.16-.34-.15-.33-.16-.32-.15-.32-.16-.31-.15-.3.8-.77,4.31-3.79.87-.69.28.19.28.19.3.19.3.2.31.19.32.2.32.21.33.2.34.21.35.21.36.21.37.21.37.22.38.21.39.22.4.22.41.22.41.23.42.22.43.23.44.22.45.23.46.23.46.23.48.23.48.23.49.23.5.23.51.24.51.23.53.23.53.23.54.24.55.23.56.23.57.24.58.23.58.23.6.23,0,0h0l3.66-3.57h0v0l0,0-.21-.6-.22-.59-.22-.58-.22-.58-.22-.56-.22-.56-.22-.54-.22-.54-.22-.53-.22-.52-.22-.52-.22-.5-.22-.5-.22-.48-.22-.48-.22-.47-.21-.46-.22-.46L505,500l-.21-.44-.22-.43-.21-.42-.21-.41-.21-.4-.21-.4-.21-.38-.2-.38-.21-.37-.2-.36-.2-.36-.2-.34-.2-.34-.19-.33-.2-.32-.19-.32-.18-.3-.19-.3-.18-.29-.18-.29.71-.85,3.88-4.21.8-.78.29.15.31.16.31.16.32.17.33.16.34.17.34.16.35.17.36.17.37.18.38.17.39.17.39.18.4.17.41.18.42.18.43.17.44.18.44.18.45.18.46.18.47.18.48.18.49.18.49.18.5.18.52.18.52.17.53.18.53.18.55.18.55.17.57.18.57.17.58.18.59.17.6.17.6.17.62.17h.06l3.27-3.94h0v0l0,0-.28-.58-.28-.56-.28-.56-.27-.54-.28-.54-.28-.53-.27-.52-.28-.52-.27-.5-.28-.5-.27-.48-.27-.48-.27-.47-.27-.46-.27-.46-.27-.44-.26-.44-.26-.43-.26-.42-.26-.41-.26-.4-.26-.4-.25-.38-.25-.38-.25-.37-.25-.37-.24-.35-.25-.35-.24-.34-.23-.33-.24-.32-.23-.32-.23-.3-.22-.3-.22-.3-.22-.28-.22-.28-.21-.27-.21-.26.62-.93,3.42-4.59.71-.86.31.12.32.13.33.13.33.13.35.13.35.13.36.13.37.13.38.13.38.13.39.13.41.14.41.13.41.13.43.13.44.14.44.13.45.13.46.13.47.13.48.13.48.13.5.13.5.13.51.13.52.12.53.13.53.12.55.12.55.12.56.12.57.12.58.11.59.12.6.11.6.11.61.1.62.11.63.1h.06l2.84-4.26h0l0,0-.34-.54-.33-.53-.34-.53-.33-.51-.34-.51-.33-.5-.32-.49-.33-.48-.33-.47-.32-.47-.32-.45-.32-.45-.32-.44-.32-.43-.31-.42-.31-.42-.31-.4-.31-.4-.3-.39-.3-.38-.3-.38-.3-.36-.29-.36-.29-.35-.29-.35-.28-.33-.28-.33-.28-.32-.27-.31-.27-.3-.27-.3-.26-.29-.26-.28-.26-.28-.25-.27-.25-.26-.24-.25-.24-.25-.23-.23.52-1,2.92-4.93.61-.93.33.1.33.09.34.09.34.09.36.1.36.09.38.09.38.09.38.1.4.09.41.09.41.09.42.09.43.08.44.09.45.09.45.08.46.09.48.08.48.08.48.08.5.08.5.07.52.08.52.07.53.07.54.07.54.07.56.06.56.06.57.06.58.06.59.05.59.06.61,0,.61.05.62,0,.63,0,.63,0h.07l2.37-4.53h0v0l0,0-.4-.5-.39-.5-.38-.48-.39-.48-.38-.47-.38-.46-.38-.45-.38-.45-.37-.43-.37-.43-.37-.42-.37-.41-.36-.41-.36-.39-.35-.39-.36-.38-.35-.37-.34-.37-.34-.35-.34-.35-.34-.34-.33-.33-.33-.33-.33-.32-.32-.31-.31-.3-.32-.3-.31-.29-.3-.28-.3-.27-.3-.27-.29-.26-.29-.26-.28-.24-.28-.24-.27-.24-.27-.22-.26-.22-.26-.22.41-1,2.39-5.21.52-1,.33.05.34.06.34.06.36,0,.36.06.37.05.38.06.39.05.4.05.4.05.41,0,.42,0,.43.05.44,0,.44,0,.46,0,.46,0,.47,0,.48,0,.48,0,.5,0,.5,0,.51,0,.51,0,.53,0h.54l.54,0h4.62l.61,0,.63,0,.63,0,.63,0h.07l1.89-4.75h0v0l0,0-.44-.46-.44-.46-.44-.44-.43-.43-.43-.43-.43-.42-.42-.41-.42-.4-.42-.4-.41-.38-.41-.38-.41-.37-.4-.37-.4-.35-.39-.35-.39-.34-.39-.33-.38-.33-.38-.32-.38-.31-.37-.3-.36-.3-.36-.29-.36-.28-.35-.28-.35-.27-.34-.26-.34-.25-.33-.25-.33-.24-.32-.24-.32-.23-.31-.22-.31-.22-.3-.21-.29-.2-.29-.2-.29-.19-.28-.18.3-1.07,1.84-5.43.41-1,.33,0,.34,0,.36,0,.35,0H558l.38,0h4.19l.46,0h.47l.48,0,.48,0,.5,0,.5,0,.51,0,.52,0,.52,0,.53,0,.54,0,.55,0,.56-.06.56-.05.57-.06.58-.07.59-.07.59-.07.6-.08.61-.08.62-.09.62-.09.63-.1h.06l1.38-4.92h0l0,0-.49-.41-.49-.41-.48-.39-.47-.39-.48-.38-.46-.37-.47-.36-.46-.36-.45-.35-.46-.34-.44-.34-.45-.32-.43-.32-.44-.31-.43-.31-.42-.3-.42-.29-.42-.28-.4-.28-.41-.27-.4-.26-.39-.26-.39-.25-.39-.24-.37-.24-.38-.23-.37-.23-.36-.22-.35-.21-.36-.2-.34-.2-.34-.2-.33-.19-.33-.18-.32-.18-.32-.17-.31-.16-.3-.16-.3-.16.19-1.09,1.26-5.59.29-1.08h.68l.35,0,.36,0,.37,0,.37,0,.39,0,.39,0,.39,0,.41,0,.41,0,.42,0,.43-.05.44-.05.44-.05.45-.06.46-.06.47-.06.47-.07.48-.07.49-.07.5-.08.5-.09.51-.08.52-.1.53-.09.53-.1.54-.11.55-.11.55-.11.56-.12.57-.13.58-.13.58-.13.59-.14.59-.15.61-.15.61-.16.61-.16h.07l.86-5h0l0,0-.52-.36-.53-.35-.52-.34-.51-.34-.51-.33-.51-.32-.5-.31-.49-.31-.49-.3-.48-.29-.48-.29-.48-.27-.47-.28-.46-.26-.46-.26-.45-.25-.45-.25-.44-.24-.44-.23-.43-.23-.42-.22-.42-.21-.42-.21-.4-.2-.41-.2-.39-.19-.39-.18-.38-.18-.38-.18-.37-.17-.37-.16-.35-.16-.36-.15-.34-.15-.34-.14-.33-.13-.33-.14-.32-.12-.31-.13.08-1.11.66-5.69.19-1.1.33,0,.34-.05.35-.06.35-.05.36-.06.37-.07.38-.06.39-.08.39-.07.4-.08.4-.08.42-.09.42-.09.43-.09.43-.1.45-.1.45-.11.45-.11.47-.12.47-.12.48-.12.48-.13.5-.14.5-.14.5-.15.51-.15.52-.15.53-.16.53-.17.54-.17.55-.18.55-.19.56-.19.56-.19.57-.2.58-.21.59-.21.59-.22.59-.23h.06l.33-5.11h0l0,0-.56-.3-.56-.29-.55-.29-.54-.28-.54-.27-.54-.26-.53-.26-.52-.26-.52-.24-.52-.24-.5-.24-.5-.22-.5-.23-.49-.21-.48-.21-.48-.2-.47-.2-.46-.19-.46-.19-.45-.18-.45-.17-.44-.17-.43-.17-.43-.16-.42-.15-.41-.15-.41-.14-.4-.14-.39-.13-.38-.13-.38-.13-.38-.12-.36-.11-.36-.11-.35-.11-.35-.1-.34-.1-.33-.09-.32-.09,0-1.11ZM1,326C1,146.51,146.51,1,326,1S651,146.51,651,326,505.49,651,326,651,1,505.49,1,326Z" transform="translate(-0.5 -0.5)"/><line class="cls-2" x1="335.5" y1="325.5" x2="315.5" y2="325.5"/><line class="cls-2" x1="325.5" y1="335.5" x2="325.5" y2="315.5"/><circle class="cls-3" cx="575.48" cy="328.46" r="3.27"/><polyline class="cls-4" points="532.4 127.2 530.31 125.05 528.2 122.91 526.07 120.8 523.92 118.71"/><line class="cls-4" x1="523.96" y1="127.15" x2="532.45" y2="118.67"/><polyline class="cls-4" points="536.73 123.05 532.46 122.95 528.2 122.91 523.97 122.95 519.76 123.04"/><polyline class="cls-4" points="528.07 131.35 528.17 127.14 528.2 122.91 528.17 118.66 528.07 114.38"/><polyline class="cls-4" points="540.92 127.52 545.21 127.77 547.27 130.09 549.31 132.42 549.02 136.71 546.73 138.64 542.49 138.3 542.15 142.51 539.85 144.45 535.68 144.18 533.77 141.99 531.83 139.82 532.09 135.64"/><line class="cls-4" x1="540.52" y1="136.04" x2="542.49" y2="138.3"/><polyline class="cls-4" points="571.73 161.98 556.74 171.94 558.84 167 560.86 162 562.81 156.93 564.67 151.82 550.11 162.39"/><polyline class="cls-4" points="576.31 180.76 574.79 178.14 573.23 175.54 571.65 172.95 570.04 170.38"/><polyline class="cls-4" points="571.12 183.76 569.62 181.19 568.1 178.64 566.55 176.11 564.97 173.6"/><polyline class="cls-4" points="576.66 187.48 578.09 190.12 579.49 192.77 580.87 195.44 579.53 199.45 576.84 200.78 572.85 199.52 571.52 196.94 570.16 194.37 571.4 190.37 579.29 186.04 583.38 187.29 587.47 188.6 588.89 191.35"/><polyline class="cls-4" points="583.02 214.11 579.1 212.64 577.91 209.99 579.4 206.07 590.26 200.97 594.27 202.5 595.55 205.32 594.04 209.34 583.02 214.11"/><polyline class="cls-4" points="596.15 231.29 597.13 234.12 598.07 236.97 598.98 239.83 602.73 241.83 605.6 240.96 607.57 237.14 606.63 234.19 605.66 231.25 604.65 228.33 587.65 234.24"/><line class="cls-4" x1="592.87" y1="250.88" x2="604.42" y2="247.65"/><line class="cls-4" x1="607.31" y1="246.85" x2="610.2" y2="246.04"/><polyline class="cls-4" points="599.96 267.18 596.4 264.97 598.68 261.45 613.28 258.03"/><polyline class="cls-4" points="608.76 265.31 608.11 262.35 607.44 259.4 606.73 256.45 605.99 253.51"/><polyline class="cls-4" points="600.11 284.96 599.67 282.09 599.2 279.22 598.7 276.36 601.12 272.94 607.01 271.82 610.51 274.24 611.03 277.22 611.52 280.22 611.98 283.21"/><polyline class="cls-4" points="606.85 289.97 610.19 292.57 613.5 295.24 613.8 298.26 611.08 301.53 602.11 302.28"/><line class="cls-4" x1="600.9" y1="290.72" x2="618.75" y2="288.47"/><polyline class="cls-4" points="603.07 322.59 603.08 325.5 603.07 328.41 603.02 331.31 605.94 334.31 617.94 334.69 621.02 331.69 621.07 328.59 621.08 325.5 621.07 322.41"/><line class="cls-4" x1="621.08" y1="325.5" x2="603.08" y2="325.5"/><polyline class="cls-4" points="613.8 352.74 614.07 349.72 614.31 346.7 614.51 343.68 614.69 340.65"/><polyline class="cls-4" points="607.83 352.18 608.09 349.22 608.32 346.26 608.52 343.3 608.69 340.34"/><polyline class="cls-4" points="617.45 371.72 617.91 368.66 618.35 365.6 618.75 362.53 619.13 359.46 613.17 358.77 612.8 361.78 612.41 364.79 611.98 367.79 608.56 370.32 602.63 369.38 600.11 366.04 600.52 363.16 600.9 360.28 604.23 357.74"/><polyline class="cls-4" points="604.52 390.92 603.82 393.84 603.09 396.74 602.33 399.65 604.42 403.35 607.31 404.15 611.02 401.98 611.8 398.98 612.56 395.98 613.28 392.97 595.75 388.86"/><polyline class="cls-4" points="598.99 420.7 599.97 417.83 600.92 414.95 601.84 412.07 602.73 409.17"/><polyline class="cls-4" points="593.32 418.73 594.28 415.92 595.21 413.1 596.12 410.27 596.99 407.44"/><polyline class="cls-4" points="599.75 427.45 601.46 431.39 584.66 424.94"/><polyline class="cls-4" points="583.6 427.65 584.66 424.94 585.69 422.22"/><polyline class="cls-4" points="576.68 443.65 577.91 441.01 579.1 438.36 580.27 435.7 581.41 433.03 586.94 435.36 588.53 439.28 587.32 442.02 586.09 444.76 587.54 448.76 590.26 450.03 594.27 448.5 595.55 445.68 596.79 442.85 595.24 438.84"/><polyline class="cls-4" points="575.2 466.14 573.72 468.74 572.2 471.33 570.66 473.91 571.65 478.05 574.2 479.63 578.36 478.57 579.95 475.91 581.51 473.24 583.04 470.55 567.36 461.72"/><polyline class="cls-4" points="558.33 476.63 563.37 479.9 566.73 485.7 570.01 491.59 563.33 490.72 556.69 489.72 551.8 486.25"/><polyline class="cls-4" points="563.37 479.9 561.74 482.38 560.08 484.85 558.4 487.29 556.69 489.72"/><polyline class="cls-4" points="550.59 507.68 552.49 505.32 554.36 502.93 556.2 500.53 558.02 498.1"/><polyline class="cls-4" points="545.93 503.91 547.79 501.59 549.62 499.26 551.42 496.9 553.21 494.53"/><polyline class="cls-4" points="529.88 513.33 531.83 511.18 533.77 509.01 535.68 506.82 537.56 504.61 542.15 508.49 542.49 512.7 540.52 514.96 538.52 517.2 538.71 521.45 540.92 523.48 545.21 523.23 547.27 520.91 549.31 518.58 549.02 514.29"/><polyline class="cls-4" points="521.87 525.91 521.84 521.72 523.88 519.66 528.07 519.65 536.73 527.95 536.74 532.25 534.57 534.45 530.27 534.48 521.87 525.91"/><g class="cls-5"><circle class="cls-1" cx="325.5" cy="325.5" r="250"/><circle class="cls-6" cx="325.5" cy="325.5" r="259.58"/><circle class="cls-6" cx="325.5" cy="325.5" r="234.92"/></g></svg>