<?xml version="1.0" encoding="utf-8"?><!-- Generator: Iparigrafika Gear Generator by Abel Vincze http://geargenerator.com/ --><svg version="1.2" class="svggear" xmlns="http://www.w3.org/2000/svg" xmlns:xlink="http://www.w3.org/1999/xlink" x="0px" y="0px" width="350px" height="350px" viewBox="-175 -175 350 350" overflow="scroll" xml:space="preserve"><path id="gearpoly0" data-id="0" class="gear" fill="#ddd" stroke="#444" stroke-width="1" stroke-miterlimit="10" d="M71.25,0 89.114222,-0.000158 89.26674,-0.006768 89.587863,-0.03407 90.075755,-0.096759 90.72762,-0.209396 91.53971,-0.386349 92.507342,-0.641743 93.624904,-0.989401 94.885881,-1.442794 96.282874,-2.014985 97.807618,-2.718581 99.451018,-3.565681 101.203169,-4.567828 103.053393,-5.735962 104.990271,-7.080373 107.001683,-8.610661 109.074843,-10.335692 111.196341,-12.263558 113.352191,-14.401545 115.52787,-16.75609 117.708371,-19.332757 119.87825,-22.136202 122.021675,-25.170147 122.286942,-25.565745 122.320052,-25.615452 122.336602,-25.640326 122.340732,-25.646546 120.871196,-31.86148 120.864719,-31.865191 120.83878,-31.880019 120.786915,-31.909633 120.372565,-32.144534 117.097329,-33.897224 113.901674,-35.431976 110.798086,-36.759208 107.798291,-37.89 104.913214,-38.836048 102.152956,-39.609612 99.526761,-40.223469 97.042993,-40.690862 94.709113,-41.025442 92.53166,-41.241222 90.516233,-41.352517 88.667481,-41.373889 86.989089,-41.320096 85.483772,-41.20603 84.153271,-41.046661 82.998354,-40.856986 82.018812,-40.651966 81.213469,-40.446474 80.58019,-40.255235 80.115889,-40.092776 79.816544,-39.973368 79.677218,-39.91097 63.704722,-31.910357 50.381358,-50.381358 63.013159,-63.013382 63.116332,-63.125902 63.324094,-63.372276 63.624758,-63.761596 64.00605,-64.30218 64.45516,-65.00154 64.958788,-65.866349 65.503192,-66.902416 66.074241,-68.114659 66.657463,-69.507082 67.238103,-71.082757 67.801172,-72.843806 68.331505,-74.791389 68.813815,-76.92569 69.232753,-79.245912 69.572959,-81.750272 69.819123,-84.435998 69.956041,-87.299332 69.968673,-90.335533 69.842195,-93.538885 69.562064,-96.902711 69.114065,-100.419382 68.484373,-104.080336 68.392214,-104.547638 68.380478,-104.606198 68.374593,-104.63549 68.373115,-104.642808 62.939374,-107.998311 62.93217,-107.996355 62.903343,-107.988498 62.845729,-107.972764 62.386639,-107.845875 58.831358,-106.769273 55.486455,-105.594836 52.353393,-104.338763 49.432626,-103.017179 46.723612,-101.646078 44.224823,-100.241273 41.93376,-98.818336 39.846974,-97.392543 37.960088,-95.978824 36.267816,-94.591712 34.763997,-93.245287 33.441619,-91.953135 32.292854,-90.728295 31.309092,-89.583218 30.480976,-88.529721 29.798447,-87.578951 29.250777,-86.741339 28.826619,-86.026571 28.514049,-85.443549 28.300614,-85.000362 28.17338,-84.704259 28.118983,-84.561619 22.482011,-67.610071 0,-71.25 -0.000158,-89.114222 -0.006768,-89.26674 -0.03407,-89.587863 -0.096759,-90.075755 -0.209396,-90.72762 -0.386349,-91.53971 -0.641743,-92.507342 -0.989401,-93.624904 -1.442794,-94.885881 -2.014985,-96.282874 -2.718581,-97.807618 -3.565681,-99.451018 -4.567828,-101.203169 -5.735962,-103.053393 -7.080373,-104.990271 -8.610661,-107.001683 -10.335692,-109.074843 -12.263558,-111.196341 -14.401545,-113.352191 -16.75609,-115.52787 -19.332757,-117.708371 -22.136202,-119.87825 -25.170147,-122.021675 -25.565745,-122.286942 -25.615452,-122.320052 -25.640326,-122.336602 -25.646546,-122.340732 -31.86148,-120.871196 -31.865191,-120.864719 -31.880019,-120.83878 -31.909633,-120.786915 -32.144534,-120.372565 -33.897224,-117.097329 -35.431976,-113.901674 -36.759208,-110.798086 -37.89,-107.798291 -38.836048,-104.913214 -39.609612,-102.152956 -40.223469,-99.526761 -40.690862,-97.042993 -41.025442,-94.709113 -41.241222,-92.53166 -41.352517,-90.516233 -41.373889,-88.667481 -41.320096,-86.989089 -41.20603,-85.483772 -41.046661,-84.153271 -40.856986,-82.998354 -40.651966,-82.018812 -40.446474,-81.213469 -40.255235,-80.58019 -40.092776,-80.115889 -39.973368,-79.816544 -39.91097,-79.677218 -31.910357,-63.704722 -50.381358,-50.381358 -63.013382,-63.013159 -63.125902,-63.116332 -63.372276,-63.324094 -63.761596,-63.624758 -64.30218,-64.00605 -65.00154,-64.45516 -65.866349,-64.958788 -66.902416,-65.503192 -68.114659,-66.074241 -69.507082,-66.657463 -71.082757,-67.238103 -72.843806,-67.801172 -74.791389,-68.331505 -76.92569,-68.813815 -79.245912,-69.232753 -81.750272,-69.572959 -84.435998,-69.819123 -87.299332,-69.956041 -90.335533,-69.968673 -93.538885,-69.842195 -96.902711,-69.562064 -100.419382,-69.114065 -104.080336,-68.484373 -104.547638,-68.392214 -104.606198,-68.380478 -104.63549,-68.374593 -104.642808,-68.373115 -107.998311,-62.939374 -107.996355,-62.93217 -107.988498,-62.903343 -107.972764,-62.845729 -107.845875,-62.386639 -106.769273,-58.831358 -105.594836,-55.486455 -104.338763,-52.353393 -103.017179,-49.432626 -101.646078,-46.723612 -100.241273,-44.224823 -98.818336,-41.93376 -97.392543,-39.846974 -95.978824,-37.960088 -94.591712,-36.267816 -93.245287,-34.763997 -91.953135,-33.441619 -90.728295,-32.292854 -89.583218,-31.309092 -88.529721,-30.480976 -87.578951,-29.798447 -86.741339,-29.250777 -86.026571,-28.826619 -85.443549,-28.514049 -85.000362,-28.300614 -84.704259,-28.17338 -84.561619,-28.118983 -67.610071,-22.482011 -71.25,0 -89.114222,0.000158 -89.26674,0.006768 -89.587863,0.03407 -90.075755,0.096759 -90.72762,0.209396 -91.53971,0.386349 -92.507342,0.641743 -93.624904,0.989401 -94.885881,1.442794 -96.282874,2.014985 -97.807618,2.718581 -99.451018,3.565681 -101.203169,4.567828 -103.053393,5.735962 -104.990271,7.080373 -107.001683,8.610661 -109.074843,10.335692 -111.196341,12.263558 -113.352191,14.401545 -115.52787,16.75609 -117.708371,19.332757 -119.87825,22.136202 -122.021675,25.170147 -122.286942,25.565745 -122.320052,25.615452 -122.336602,25.640326 -122.340732,25.646546 -120.871196,31.86148 -120.864719,31.865191 -120.83878,31.880019 -120.786915,31.909633 -120.372565,32.144534 -117.097329,33.897224 -113.901674,35.431976 -110.798086,36.759208 -107.798291,37.89 -104.913214,38.836048 -102.152956,39.609612 -99.526761,40.223469 -97.042993,40.690862 -94.709113,41.025442 -92.53166,41.241222 -90.516233,41.352517 -88.667481,41.373889 -86.989089,41.320096 -85.483772,41.20603 -84.153271,41.046661 -82.998354,40.856986 -82.018812,40.651966 -81.213469,40.446474 -80.58019,40.255235 -80.115889,40.092776 -79.816544,39.973368 -79.677218,39.91097 -63.704722,31.910357 -50.381358,50.381358 -63.013159,63.013382 -63.116332,63.125902 -63.324094,63.372276 -63.624758,63.761596 -64.00605,64.30218 -64.45516,65.00154 -64.958788,65.866349 -65.503192,66.902416 -66.074241,68.114659 -66.657463,69.507082 -67.238103,71.082757 -67.801172,72.843806 -68.331505,74.791389 -68.813815,76.92569 -69.232753,79.245912 -69.572959,81.750272 -69.819123,84.435998 -69.956041,87.299332 -69.968673,90.335533 -69.842195,93.538885 -69.562064,96.902711 -69.114065,100.419382 -68.484373,104.080336 -68.392214,104.547638 -68.380478,104.606198 -68.374593,104.63549 -68.373115,104.642808 -62.939374,107.998311 -62.93217,107.996355 -62.903343,107.988498 -62.845729,107.972764 -62.386639,107.845875 -58.831358,106.769273 -55.486455,105.594836 -52.353393,104.338763 -49.432626,103.017179 -46.723612,101.646078 -44.224823,100.241273 -41.93376,98.818336 -39.846974,97.392543 -37.960088,95.978824 -36.267816,94.591712 -34.763997,93.245287 -33.441619,91.953135 -32.292854,90.728295 -31.309092,89.583218 -30.480976,88.529721 -29.798447,87.578951 -29.250777,86.741339 -28.826619,86.026571 -28.514049,85.443549 -28.300614,85.000362 -28.17338,84.704259 -28.118983,84.561619 -22.482011,67.610071 0,71.25 0.000158,89.114222 0.006768,89.26674 0.03407,89.587863 0.096759,90.075755 0.209396,90.72762 0.386349,91.53971 0.641743,92.507342 0.989401,93.624904 1.442794,94.885881 2.014985,96.282874 2.718581,97.807618 3.565681,99.451018 4.567828,101.203169 5.735962,103.053393 7.080373,104.990271 8.610661,107.001683 10.335692,109.074843 12.263558,111.196341 14.401545,113.352191 16.75609,115.52787 19.332757,117.708371 22.136202,119.87825 25.170147,122.021675 25.565745,122.286942 25.615452,122.320052 25.640326,122.336602 25.646546,122.340732 31.86148,120.871196 31.865191,120.864719 31.880019,120.83878 31.909633,120.786915 32.144534,120.372565 33.897224,117.097329 35.431976,113.901674 36.759208,110.798086 37.89,107.798291 38.836048,104.913214 39.609612,102.152956 40.223469,99.526761 40.690862,97.042993 41.025442,94.709113 41.241222,92.53166 41.352517,90.516233 41.373889,88.667481 41.320096,86.989089 41.20603,85.483772 41.046661,84.153271 40.856986,82.998354 40.651966,82.018812 40.446474,81.213469 40.255235,80.58019 40.092776,80.115889 39.973368,79.816544 39.91097,79.677218 31.910357,63.704722 50.381358,50.381358 63.013382,63.013159 63.125902,63.116332 63.372276,63.324094 63.761596,63.624758 64.30218,64.00605 65.00154,64.45516 65.866349,64.958788 66.902416,65.503192 68.114659,66.074241 69.507082,66.657463 71.082757,67.238103 72.843806,67.801172 74.791389,68.331505 76.92569,68.813815 79.245912,69.232753 81.750272,69.572959 84.435998,69.819123 87.299332,69.956041 90.335533,69.968673 93.538885,69.842195 96.902711,69.562064 100.419382,69.114065 104.080336,68.484373 104.547638,68.392214 104.606198,68.380478 104.63549,68.374593 104.642808,68.373115 107.998311,62.939374 107.996355,62.93217 107.988498,62.903343 107.972764,62.845729 107.845875,62.386639 106.769273,58.831358 105.594836,55.486455 104.338763,52.353393 103.017179,49.432626 101.646078,46.723612 100.241273,44.224823 98.818336,41.93376 97.392543,39.846974 95.978824,37.960088 94.591712,36.267816 93.245287,34.763997 91.953135,33.441619 90.728295,32.292854 89.583218,31.309092 88.529721,30.480976 87.578951,29.798447 86.741339,29.250777 86.026571,28.826619 85.443549,28.514049 85.000362,28.300614 84.704259,28.17338 84.561619,28.118983 67.610071,22.482011 z"/><g class="guides"><polyline fill="none" stroke="#444" stroke-width="0.5" stroke-miterlimit="10" points="10,0 -10,0"/><polyline fill="none" stroke="#444" stroke-width="0.5" stroke-miterlimit="10" points="0,10 0,-10"/></g><circle fill="#c00" class="firstmarker" stroke="none" stroke-miterlimit="10" cx="97.316529" cy="-23.010719" r="9.8125"/><g class="geartext"><g class="text"><polyline fill="none" stroke="#444" stroke-width="0.5" stroke-linecap="square" stroke-miterlimit="1"  points="-29.29 -45.71 -30.7 -44.77 -32.08 -43.79 -33.44 -42.77 -34.76 -41.7 "/><polyline fill="none" stroke="#444" stroke-width="0.5" stroke-linecap="square" stroke-miterlimit="1"  points="-30.08 -41.05 -34.09 -46.53 "/><polyline fill="none" stroke="#444" stroke-width="0.5" stroke-linecap="square" stroke-miterlimit="1"  points="-31.12 -48.56 -31.66 -46.17 -32.08 -43.79 -32.39 -41.43 -32.58 -39.09 "/><polyline fill="none" stroke="#444" stroke-width="0.5" stroke-linecap="square" stroke-miterlimit="1"  points="-27.46 -42.85 -29.74 -43.37 -32.08 -43.79 -34.48 -44.1 -36.93 -44.31 "/><polyline fill="none" stroke="#444" stroke-width="0.5" stroke-linecap="square" stroke-miterlimit="1"  points="-20.45 -46.6 -21.17 -44.41 -22.55 -43.73 -24.73 -44.48 -28.02 -50.41 -27.21 -52.77 -25.55 -53.6 -23.18 -52.82 -20.45 -46.6 "/><polyline fill="none" stroke="#444" stroke-width="0.5" stroke-linecap="square" stroke-miterlimit="1"  points="-4.14 -59.23 -3.43 -49.08 -5.22 -51.48 -7.16 -53.81 -9.25 -56.07 -11.49 -58.25 -9.52 -48.27 "/><polyline fill="none" stroke="#444" stroke-width="0.5" stroke-linecap="square" stroke-miterlimit="1"  points="6.57 -55.6 4.83 -55.77 3.09 -55.9 1.34 -55.97 -0.41 -55.98 "/><polyline fill="none" stroke="#444" stroke-width="0.5" stroke-linecap="square" stroke-miterlimit="1"  points="6.17 -52.23 4.54 -52.39 2.9 -52.51 1.26 -52.57 -0.39 -52.59 "/><polyline fill="none" stroke="#444" stroke-width="0.5" stroke-linecap="square" stroke-miterlimit="1"  points="11.39 -53.08 9.42 -51.74 9.12 -50.07 10.32 -48.1 11.82 -47.75 13.31 -47.36 15.29 -48.54 15.8 -50.16 14.68 -52.26 13.04 -52.7 11.39 -53.08 10.03 -55.08 10.34 -56.74 12.46 -58.05 14.27 -57.64 16.06 -57.16 17.33 -55.01 16.82 -53.4 14.68 -52.26 "/><polyline fill="none" stroke="#444" stroke-width="0.5" stroke-linecap="square" stroke-miterlimit="1"  points="27.16 -47 28.61 -46.13 30.04 -45.22 31.44 -44.26 33.83 -44.6 34.86 -45.95 34.39 -48.4 32.86 -49.46 31.3 -50.46 29.7 -51.41 24.61 -42.6 "/><polyline fill="none" stroke="#444" stroke-width="0.5" stroke-linecap="square" stroke-miterlimit="1"  points="32.12 -37.26 36.55 -42.4 "/><polyline fill="none" stroke="#444" stroke-width="0.5" stroke-linecap="square" stroke-miterlimit="1"  points="37.66 -43.69 38.77 -44.97 "/><polyline fill="none" stroke="#444" stroke-width="0.5" stroke-linecap="square" stroke-miterlimit="1"  points="39.83 -31.68 37.53 -31.81 37.78 -34.1 44.07 -39.79 "/><polyline fill="none" stroke="#444" stroke-width="0.5" stroke-linecap="square" stroke-miterlimit="1"  points="43.81 -34.85 42.7 -36.2 41.55 -37.51 40.36 -38.79 39.13 -40.04 "/><polyline fill="none" stroke="#444" stroke-width="0.5" stroke-linecap="square" stroke-miterlimit="1"  points="43.54 -22.91 42.8 -24.26 42.02 -25.58 41.2 -26.88 41.73 -29.13 44.51 -31.07 46.88 -30.59 47.82 -29.11 48.7 -27.6 49.54 -26.07 "/><polyline fill="none" stroke="#444" stroke-width="0.5" stroke-linecap="square" stroke-miterlimit="1"  points="47.98 -21.53 50.2 -20.67 52.41 -19.69 53 -18.04 51.91 -15.88 47.04 -14.39 "/><polyline fill="none" stroke="#444" stroke-width="0.5" stroke-linecap="square" stroke-miterlimit="1"  points="44.88 -20.14 54.17 -24.31 "/><polyline fill="none" stroke="#444" stroke-width="0.5" stroke-linecap="square" stroke-miterlimit="1"  points="49.05 -3.84 49.14 -2.31 49.19 -0.77 49.19 0.77 50.84 2.38 57.62 2.7 59.37 0.93 59.37 -0.93 59.31 -2.78 59.19 -4.63 "/><polyline fill="none" stroke="#444" stroke-width="0.5" stroke-linecap="square" stroke-miterlimit="1"  points="59.31 -2.78 49.14 -2.31 "/><polyline fill="none" stroke="#444" stroke-width="0.5" stroke-linecap="square" stroke-miterlimit="1"  points="54.45 13 54.83 11.29 55.16 9.57 55.43 7.85 55.65 6.11 "/><polyline fill="none" stroke="#444" stroke-width="0.5" stroke-linecap="square" stroke-miterlimit="1"  points="51.15 12.21 51.51 10.61 51.81 8.99 52.07 7.37 52.28 5.74 "/><polyline fill="none" stroke="#444" stroke-width="0.5" stroke-linecap="square" stroke-miterlimit="1"  points="44.88 20.14 45.49 18.73 46.05 17.3 46.57 15.85 47.04 14.39 50.29 15.38 51.39 17.49 50.82 19.09 50.2 20.67 51.07 22.92 52.62 23.62 54.9 22.61 55.58 20.88 56.21 19.13 55.16 16.87 "/><polyline fill="none" stroke="#444" stroke-width="0.5" stroke-linecap="square" stroke-miterlimit="1"  points="43.52 32.45 42.49 33.79 41.41 35.1 40.29 36.38 40.36 38.79 41.58 39.97 44.07 39.79 45.29 38.39 46.47 36.96 47.6 35.49 39.44 29.4 "/><polyline fill="none" stroke="#444" stroke-width="0.5" stroke-linecap="square" stroke-miterlimit="1"  points="32.42 45.64 33.83 44.6 35.21 43.52 36.55 42.4 37.86 41.24 "/><polyline fill="none" stroke="#444" stroke-width="0.5" stroke-linecap="square" stroke-miterlimit="1"  points="30.46 42.87 31.78 41.9 33.07 40.89 34.34 39.83 35.56 38.74 "/><polyline fill="none" stroke="#444" stroke-width="0.5" stroke-linecap="square" stroke-miterlimit="1"  points="21.93 47.8 23.41 47.09 24.87 46.33 26.31 45.54 27.72 44.69 27.44 47.49 27.01 50.32 26.44 53.17 21.9 44.05 "/><polyline fill="none" stroke="#444" stroke-width="0.5" stroke-linecap="square" stroke-miterlimit="1"  points="11.39 53.08 9.73 53.41 8.05 53.68 6.37 53.91 4.83 55.77 4.98 57.46 6.97 58.96 8.81 58.72 10.64 58.41 12.46 58.05 10.32 48.1 "/><polyline fill="none" stroke="#444" stroke-width="0.5" stroke-linecap="square" stroke-miterlimit="1"  points="1.18 49.18 1.26 52.57 -0.41 55.98 -2.29 59.33 -3.91 55.85 -5.31 52.32 -4.96 48.95 "/><polyline fill="none" stroke="#444" stroke-width="0.5" stroke-linecap="square" stroke-miterlimit="1"  points="1.26 52.57 -0.39 52.59 -2.03 52.55 -3.67 52.46 -5.31 52.32 "/><polyline fill="none" stroke="#444" stroke-width="0.5" stroke-linecap="square" stroke-miterlimit="1"  points="-15.93 53.67 -14.25 54.14 -12.55 54.56 -10.84 54.92 -9.12 55.23 "/><polyline fill="none" stroke="#444" stroke-width="0.5" stroke-linecap="square" stroke-miterlimit="1"  points="-14.97 50.41 -13.38 50.86 -11.79 51.25 -10.18 51.59 -8.56 51.89 "/><polyline fill="none" stroke="#444" stroke-width="0.5" stroke-linecap="square" stroke-miterlimit="1"  points="-22.55 43.73 -21.17 44.41 -19.77 45.05 -18.35 45.64 -16.92 46.2 -18.09 49.38 -20.25 50.37 -21.82 49.71 -23.36 49 -25.66 49.76 -26.43 51.26 -25.55 53.6 -23.86 54.37 -22.15 55.09 -19.84 54.16 "/><polyline fill="none" stroke="#444" stroke-width="0.5" stroke-linecap="square" stroke-miterlimit="1"  points="-30.45 50.97 -32.03 49.99 -33.58 48.97 -35.09 47.9 -36.57 46.78 -32.08 43.79 -27.82 40.57 "/></g></g><g class="guides gearguides" opacity="0.2"><circle class="pitch" fill="none" stroke="#f00" stroke-miterlimit="10" cx="0" cy="0" r="100"/><circle class="outer" fill="none" stroke="#ccc" stroke-miterlimit="10" stroke-dasharray="2,2" cx="0" cy="0" r="125"/><circle class="base" fill="none" stroke="#00f" stroke-miterlimit="10" stroke-dasharray="2,2" cx="0" cy="0" r="89.1"/></g></svg>