<?xml version="1.0" encoding="utf-8"?><!-- Generator: Iparigrafika Gear Generator by Abel Vincze http://geargenerator.com/ --><svg version="1.2" class="svggear" xmlns="http://www.w3.org/2000/svg" xmlns:xlink="http://www.w3.org/1999/xlink" x="0px" y="0px" width="550px" height="550px" viewBox="-275 -275 550 550" overflow="scroll" xml:space="preserve"><path id="gearpoly1" data-id="1" class="gear" fill="#ddd" stroke="#444" stroke-width="1" stroke-miterlimit="10" d="M171.25,0 178.228444,-0.000316 178.338656,-0.003597 178.533479,-0.013535 178.812636,-0.033822 179.175726,-0.06814 179.62223,-0.120155 180.15151,-0.193518 180.762805,-0.291862 181.455239,-0.418792 182.227816,-0.577888 183.079421,-0.772698 184.008825,-1.006739 185.014683,-1.283486 186.095535,-1.606377 187.249807,-1.978802 188.475815,-2.404108 189.771762,-2.885587 191.135744,-3.42648 192.565747,-4.029969 194.059652,-4.699177 195.615237,-5.437162 197.230173,-6.246916 198.902036,-7.131362 200.628298,-8.093351 202.406338,-9.135656 204.233436,-10.260975 206.106785,-11.471924 208.023483,-12.771032 209.980542,-14.160746 211.974889,-15.643421 214.003366,-17.221322 216.062737,-18.896618 218.149685,-20.671383 220.260821,-22.547592 222.392682,-24.527117 223.465283,-25.55618 223.532453,-25.621374 223.535993,-25.625376 222.341086,-34.488277 222.336613,-34.4912 222.254576,-34.536277 220.947746,-35.244543 218.367768,-36.588812 215.835135,-37.838943 213.352692,-38.997657 210.923184,-40.067758 208.549259,-41.052122 206.233465,-41.953699 203.978246,-42.775509 201.785941,-43.520637 199.658786,-44.192232 197.598906,-44.793504 195.608318,-45.32772 193.688929,-45.798197 191.842533,-46.208308 190.070811,-46.561469 188.375329,-46.861141 186.757537,-47.110826 185.21877,-47.314062 183.760245,-47.474422 182.383059,-47.595506 181.088193,-47.680945 179.876504,-47.734389 178.748733,-47.75951 177.705498,-47.759997 176.747297,-47.739548 175.874506,-47.701874 175.087381,-47.650689 174.386056,-47.589711 173.770542,-47.522654 173.240731,-47.45323 172.796394,-47.385141 172.43718,-47.322076 172.162618,-47.267711 171.972119,-47.2257 171.864973,-47.199676 165.135607,-45.351889 158.21437,-65.534538 164.661491,-68.205365 164.762058,-68.250572 164.938248,-68.33431 165.188391,-68.459881 165.51071,-68.630534 165.903321,-68.84946 166.364236,-69.119786 166.891365,-69.444576 167.482517,-69.826827 168.135401,-70.269465 168.847631,-70.775342 169.616725,-71.347234 170.44011,-71.987841 171.315122,-72.699776 172.23901,-73.485574 173.208936,-74.347678 174.221981,-75.288444 175.275145,-76.310138 176.36535,-77.414927 177.489444,-78.604887 178.644202,-79.881993 179.826329,-81.248117 181.032466,-82.705033 182.259187,-84.254407 183.503008,-85.897798 184.760387,-87.636658 186.027725,-89.472327 187.301376,-91.406036 188.577642,-93.438898 189.852783,-95.571915 191.123015,-97.805969 192.384517,-100.141828 193.633433,-102.580138 194.865875,-105.121426 196.077926,-107.766096 196.675074,-109.127293 196.712183,-109.213229 196.713922,-109.218282 192.218287,-116.949264 192.213035,-116.950252 192.119993,-116.960503 190.641598,-117.114754 187.743579,-117.369382 184.925327,-117.555155 182.188428,-117.675678 179.534345,-117.734589 176.964425,-117.735561 174.479892,-117.682294 172.081848,-117.578512 169.771274,-117.427962 167.549031,-117.234408 165.415853,-117.00163 163.372354,-116.733415 161.419026,-116.433561 159.556236,-116.105869 157.784229,-115.754138 156.103128,-115.382166 154.512933,-114.993743 153.013523,-114.592649 151.604655,-114.182648 150.285964,-113.767489 149.056967,-113.3509 147.917061,-112.936583 146.865522,-112.528213 145.901513,-112.129433 145.024076,-111.743854 144.23214,-111.375045 143.524519,-111.026536 142.899914,-110.701814 142.356915,-110.404315 141.894001,-110.137426 141.509543,-109.904479 141.201806,-109.708749 140.968949,-109.553452 140.809028,-109.441738 140.719997,-109.376692 135.209991,-105.094343 121.092036,-121.092036 126.026318,-126.026765 126.10193,-126.107016 126.232663,-126.251805 126.415711,-126.463543 126.648189,-126.744553 126.927135,-127.097059 127.249516,-127.523192 127.612228,-128.024983 128.0121,-128.604361 128.445896,-129.263153 128.91032,-130.00308 129.402016,-130.82576 129.917575,-131.732699 130.453535,-132.725294 131.006384,-133.804833 131.572566,-134.972488 132.148482,-136.229318 132.730493,-137.576268 133.314927,-139.014164 133.898076,-140.543716 134.476206,-142.165514 135.045557,-143.88003 135.602344,-145.687613 136.142767,-147.588493 136.663009,-149.582778 137.159243,-151.670453 137.627631,-153.85138 138.064332,-156.125299 138.465506,-158.491825 138.827312,-160.950451 139.145918,-163.500545 139.417499,-166.141353 139.638246,-168.871997 139.804365,-171.691475 139.912083,-174.598664 139.942869,-176.084765 139.944266,-176.17836 139.943939,-176.183694 132.831995,-181.605785 132.826766,-181.604688 132.736882,-181.578554 131.311995,-181.155305 128.537132,-180.281527 125.862315,-179.374661 123.287627,-178.438643 120.81303,-177.477397 118.438362,-176.494829 116.163337,-175.494827 113.987548,-174.481253 111.91047,-173.457945 109.931454,-172.428709 108.049736,-171.397317 106.26443,-170.367506 104.57454,-169.342971 102.978948,-168.327364 101.476429,-167.32429 100.065642,-166.337303 98.745136,-165.369906 97.513354,-164.425543 96.36863,-163.507601 95.309193,-162.619403 94.33317,-161.764208 93.438586,-160.945206 92.623367,-160.165515 91.885345,-159.42818 91.222254,-158.73617 90.631738,-158.092375 90.111349,-157.4996 89.658556,-156.96057 89.270738,-156.47792 88.945195,-156.054197 88.679147,-155.691856 88.469738,-155.39326 88.314036,-155.160673 88.209039,-154.996264 88.151677,-154.902099 84.699879,-148.837136 65.534538,-158.21437 68.204781,-164.661733 68.243926,-164.764811 68.3093,-164.948607 68.397385,-165.214277 68.504629,-165.562862 68.627443,-165.995283 68.76221,-166.512349 68.905286,-167.114747 69.053001,-167.803046 69.201667,-168.577697 69.347581,-169.439029 69.487023,-170.38725 69.616267,-171.422448 69.73158,-172.544589 69.829224,-173.753519 69.905466,-175.04896 69.956574,-176.430514 69.978828,-177.897659 69.968515,-179.449755 69.92194,-181.086038 69.835428,-182.805625 69.705322,-184.607512 69.527994,-186.490574 69.299845,-188.45357 69.017306,-190.495137 68.676847,-192.613797 68.274977,-194.807955 67.808246,-197.075901 67.273251,-199.415808 66.666642,-201.825739 65.985116,-204.303644 65.225431,-206.847363 64.384402,-209.454625 63.458908,-212.123054 62.445894,-214.850168 61.90563,-216.234928 61.871103,-216.321933 61.86876,-216.326736 53.223236,-218.614471 53.218825,-218.611457 53.145785,-218.552915 51.99133,-217.616603 49.762072,-215.747444 47.637906,-213.886 45.617403,-212.035942 43.699027,-210.200879 41.881131,-208.384359 40.161966,-206.589863 38.539678,-204.820805 37.012311,-203.080528 35.577811,-201.372301 34.234026,-199.699317 32.97871,-198.064689 31.809527,-196.471449 30.724049,-194.922544 29.719762,-193.420835 28.794068,-191.969093 27.944287,-190.569999 27.167661,-189.226139 26.461355,-187.940004 25.822461,-186.713987 25.248002,-185.550382 24.734933,-184.45138 24.280144,-183.419069 23.880467,-182.455432 23.532671,-181.562344 23.233475,-180.741574 22.979544,-179.994777 22.767495,-179.323502 22.5939,-178.72918 22.455289,-178.213131 22.348155,-177.77656 22.268954,-177.420555 22.214111,-177.146089 22.180023,-176.954013 22.163063,-176.845065 21.294979,-169.920824 0,-171.25 -0.000316,-178.228444 -0.003597,-178.338656 -0.013535,-178.533479 -0.033822,-178.812636 -0.06814,-179.175726 -0.120155,-179.62223 -0.193518,-180.15151 -0.291862,-180.762805 -0.418792,-181.455239 -0.577888,-182.227816 -0.772698,-183.079421 -1.006739,-184.008825 -1.283486,-185.014683 -1.606377,-186.095535 -1.978802,-187.249807 -2.404108,-188.475815 -2.885587,-189.771762 -3.42648,-191.135744 -4.029969,-192.565747 -4.699177,-194.059652 -5.437162,-195.615237 -6.246916,-197.230173 -7.131362,-198.902036 -8.093351,-200.628298 -9.135656,-202.406338 -10.260975,-204.233436 -11.471924,-206.106785 -12.771032,-208.023483 -14.160746,-209.980542 -15.643421,-211.974889 -17.221322,-214.003366 -18.896618,-216.062737 -20.671383,-218.149685 -22.547592,-220.260821 -24.527117,-222.392682 -25.55618,-223.465283 -25.621374,-223.532453 -25.625376,-223.535993 -34.488277,-222.341086 -34.4912,-222.336613 -34.536277,-222.254576 -35.244543,-220.947746 -36.588812,-218.367768 -37.838943,-215.835135 -38.997657,-213.352692 -40.067758,-210.923184 -41.052122,-208.549259 -41.953699,-206.233465 -42.775509,-203.978246 -43.520637,-201.785941 -44.192232,-199.658786 -44.793504,-197.598906 -45.32772,-195.608318 -45.798197,-193.688929 -46.208308,-191.842533 -46.561469,-190.070811 -46.861141,-188.375329 -47.110826,-186.757537 -47.314062,-185.21877 -47.474422,-183.760245 -47.595506,-182.383059 -47.680945,-181.088193 -47.734389,-179.876504 -47.75951,-178.748733 -47.759997,-177.705498 -47.739548,-176.747297 -47.701874,-175.874506 -47.650689,-175.087381 -47.589711,-174.386056 -47.522654,-173.770542 -47.45323,-173.240731 -47.385141,-172.796394 -47.322076,-172.43718 -47.267711,-172.162618 -47.2257,-171.972119 -47.199676,-171.864973 -45.351889,-165.135607 -65.534538,-158.21437 -68.205365,-164.661491 -68.250572,-164.762058 -68.33431,-164.938248 -68.459881,-165.188391 -68.630534,-165.51071 -68.84946,-165.903321 -69.119786,-166.364236 -69.444576,-166.891365 -69.826827,-167.482517 -70.269465,-168.135401 -70.775342,-168.847631 -71.347234,-169.616725 -71.987841,-170.44011 -72.699776,-171.315122 -73.485574,-172.23901 -74.347678,-173.208936 -75.288444,-174.221981 -76.310138,-175.275145 -77.414927,-176.36535 -78.604887,-177.489444 -79.881993,-178.644202 -81.248117,-179.826329 -82.705033,-181.032466 -84.254407,-182.259187 -85.897798,-183.503008 -87.636658,-184.760387 -89.472327,-186.027725 -91.406036,-187.301376 -93.438898,-188.577642 -95.571915,-189.852783 -97.805969,-191.123015 -100.141828,-192.384517 -102.580138,-193.633433 -105.121426,-194.865875 -107.766096,-196.077926 -109.127293,-196.675074 -109.213229,-196.712183 -109.218282,-196.713922 -116.949264,-192.218287 -116.950252,-192.213035 -116.960503,-192.119993 -117.114754,-190.641598 -117.369382,-187.743579 -117.555155,-184.925327 -117.675678,-182.188428 -117.734589,-179.534345 -117.735561,-176.964425 -117.682294,-174.479892 -117.578512,-172.081848 -117.427962,-169.771274 -117.234408,-167.549031 -117.00163,-165.415853 -116.733415,-163.372354 -116.433561,-161.419026 -116.105869,-159.556236 -115.754138,-157.784229 -115.382166,-156.103128 -114.993743,-154.512933 -114.592649,-153.013523 -114.182648,-151.604655 -113.767489,-150.285964 -113.3509,-149.056967 -112.936583,-147.917061 -112.528213,-146.865522 -112.129433,-145.901513 -111.743854,-145.024076 -111.375045,-144.23214 -111.026536,-143.524519 -110.701814,-142.899914 -110.404315,-142.356915 -110.137426,-141.894001 -109.904479,-141.509543 -109.708749,-141.201806 -109.553452,-140.968949 -109.441738,-140.809028 -109.376692,-140.719997 -105.094343,-135.209991 -121.092036,-121.092036 -126.026765,-126.026318 -126.107016,-126.10193 -126.251805,-126.232663 -126.463543,-126.415711 -126.744553,-126.648189 -127.097059,-126.927135 -127.523192,-127.249516 -128.024983,-127.612228 -128.604361,-128.0121 -129.263153,-128.445896 -130.00308,-128.91032 -130.82576,-129.402016 -131.732699,-129.917575 -132.725294,-130.453535 -133.804833,-131.006384 -134.972488,-131.572566 -136.229318,-132.148482 -137.576268,-132.730493 -139.014164,-133.314927 -140.543716,-133.898076 -142.165514,-134.476206 -143.88003,-135.045557 -145.687613,-135.602344 -147.588493,-136.142767 -149.582778,-136.663009 -151.670453,-137.159243 -153.85138,-137.627631 -156.125299,-138.064332 -158.491825,-138.465506 -160.950451,-138.827312 -163.500545,-139.145918 -166.141353,-139.417499 -168.871997,-139.638246 -171.691475,-139.804365 -174.598664,-139.912083 -176.084765,-139.942869 -176.17836,-139.944266 -176.183694,-139.943939 -181.605785,-132.831995 -181.604688,-132.826766 -181.578554,-132.736882 -181.155305,-131.311995 -180.281527,-128.537132 -179.374661,-125.862315 -178.438643,-123.287627 -177.477397,-120.81303 -176.494829,-118.438362 -175.494827,-116.163337 -174.481253,-113.987548 -173.457945,-111.91047 -172.428709,-109.931454 -171.397317,-108.049736 -170.367506,-106.26443 -169.342971,-104.57454 -168.327364,-102.978948 -167.32429,-101.476429 -166.337303,-100.065642 -165.369906,-98.745136 -164.425543,-97.513354 -163.507601,-96.36863 -162.619403,-95.309193 -161.764208,-94.33317 -160.945206,-93.438586 -160.165515,-92.623367 -159.42818,-91.885345 -158.73617,-91.222254 -158.092375,-90.631738 -157.4996,-90.111349 -156.96057,-89.658556 -156.47792,-89.270738 -156.054197,-88.945195 -155.691856,-88.679147 -155.39326,-88.469738 -155.160673,-88.314036 -154.996264,-88.209039 -154.902099,-88.151677 -148.837136,-84.699879 -158.21437,-65.534538 -164.661733,-68.204781 -164.764811,-68.243926 -164.948607,-68.3093 -165.214277,-68.397385 -165.562862,-68.504629 -165.995283,-68.627443 -166.512349,-68.76221 -167.114747,-68.905286 -167.803046,-69.053001 -168.577697,-69.201667 -169.439029,-69.347581 -170.38725,-69.487023 -171.422448,-69.616267 -172.544589,-69.73158 -173.753519,-69.829224 -175.04896,-69.905466 -176.430514,-69.956574 -177.897659,-69.978828 -179.449755,-69.968515 -181.086038,-69.92194 -182.805625,-69.835428 -184.607512,-69.705322 -186.490574,-69.527994 -188.45357,-69.299845 -190.495137,-69.017306 -192.613797,-68.676847 -194.807955,-68.274977 -197.075901,-67.808246 -199.415808,-67.273251 -201.825739,-66.666642 -204.303644,-65.985116 -206.847363,-65.225431 -209.454625,-64.384402 -212.123054,-63.458908 -214.850168,-62.445894 -216.234928,-61.90563 -216.321933,-61.871103 -216.326736,-61.86876 -218.614471,-53.223236 -218.611457,-53.218825 -218.552915,-53.145785 -217.616603,-51.99133 -215.747444,-49.762072 -213.886,-47.637906 -212.035942,-45.617403 -210.200879,-43.699027 -208.384359,-41.881131 -206.589863,-40.161966 -204.820805,-38.539678 -203.080528,-37.012311 -201.372301,-35.577811 -199.699317,-34.234026 -198.064689,-32.97871 -196.471449,-31.809527 -194.922544,-30.724049 -193.420835,-29.719762 -191.969093,-28.794068 -190.569999,-27.944287 -189.226139,-27.167661 -187.940004,-26.461355 -186.713987,-25.822461 -185.550382,-25.248002 -184.45138,-24.734933 -183.419069,-24.280144 -182.455432,-23.880467 -181.562344,-23.532671 -180.741574,-23.233475 -179.994777,-22.979544 -179.323502,-22.767495 -178.72918,-22.5939 -178.213131,-22.455289 -177.77656,-22.348155 -177.420555,-22.268954 -177.146089,-22.214111 -176.954013,-22.180023 -176.845065,-22.163063 -169.920824,-21.294979 -171.25,0 -178.228444,0.000316 -178.338656,0.003597 -178.533479,0.013535 -178.812636,0.033822 -179.175726,0.06814 -179.62223,0.120155 -180.15151,0.193518 -180.762805,0.291862 -181.455239,0.418792 -182.227816,0.577888 -183.079421,0.772698 -184.008825,1.006739 -185.014683,1.283486 -186.095535,1.606377 -187.249807,1.978802 -188.475815,2.404108 -189.771762,2.885587 -191.135744,3.42648 -192.565747,4.029969 -194.059652,4.699177 -195.615237,5.437162 -197.230173,6.246916 -198.902036,7.131362 -200.628298,8.093351 -202.406338,9.135656 -204.233436,10.260975 -206.106785,11.471924 -208.023483,12.771032 -209.980542,14.160746 -211.974889,15.643421 -214.003366,17.221322 -216.062737,18.896618 -218.149685,20.671383 -220.260821,22.547592 -222.392682,24.527117 -223.465283,25.55618 -223.532453,25.621374 -223.535993,25.625376 -222.341086,34.488277 -222.336613,34.4912 -222.254576,34.536277 -220.947746,35.244543 -218.367768,36.588812 -215.835135,37.838943 -213.352692,38.997657 -210.923184,40.067758 -208.549259,41.052122 -206.233465,41.953699 -203.978246,42.775509 -201.785941,43.520637 -199.658786,44.192232 -197.598906,44.793504 -195.608318,45.32772 -193.688929,45.798197 -191.842533,46.208308 -190.070811,46.561469 -188.375329,46.861141 -186.757537,47.110826 -185.21877,47.314062 -183.760245,47.474422 -182.383059,47.595506 -181.088193,47.680945 -179.876504,47.734389 -178.748733,47.75951 -177.705498,47.759997 -176.747297,47.739548 -175.874506,47.701874 -175.087381,47.650689 -174.386056,47.589711 -173.770542,47.522654 -173.240731,47.45323 -172.796394,47.385141 -172.43718,47.322076 -172.162618,47.267711 -171.972119,47.2257 -171.864973,47.199676 -165.135607,45.351889 -158.21437,65.534538 -164.661491,68.205365 -164.762058,68.250572 -164.938248,68.33431 -165.188391,68.459881 -165.51071,68.630534 -165.903321,68.84946 -166.364236,69.119786 -166.891365,69.444576 -167.482517,69.826827 -168.135401,70.269465 -168.847631,70.775342 -169.616725,71.347234 -170.44011,71.987841 -171.315122,72.699776 -172.23901,73.485574 -173.208936,74.347678 -174.221981,75.288444 -175.275145,76.310138 -176.36535,77.414927 -177.489444,78.604887 -178.644202,79.881993 -179.826329,81.248117 -181.032466,82.705033 -182.259187,84.254407 -183.503008,85.897798 -184.760387,87.636658 -186.027725,89.472327 -187.301376,91.406036 -188.577642,93.438898 -189.852783,95.571915 -191.123015,97.805969 -192.384517,100.141828 -193.633433,102.580138 -194.865875,105.121426 -196.077926,107.766096 -196.675074,109.127293 -196.712183,109.213229 -196.713922,109.218282 -192.218287,116.949264 -192.213035,116.950252 -192.119993,116.960503 -190.641598,117.114754 -187.743579,117.369382 -184.925327,117.555155 -182.188428,117.675678 -179.534345,117.734589 -176.964425,117.735561 -174.479892,117.682294 -172.081848,117.578512 -169.771274,117.427962 -167.549031,117.234408 -165.415853,117.00163 -163.372354,116.733415 -161.419026,116.433561 -159.556236,116.105869 -157.784229,115.754138 -156.103128,115.382166 -154.512933,114.993743 -153.013523,114.592649 -151.604655,114.182648 -150.285964,113.767489 -149.056967,113.3509 -147.917061,112.936583 -146.865522,112.528213 -145.901513,112.129433 -145.024076,111.743854 -144.23214,111.375045 -143.524519,111.026536 -142.899914,110.701814 -142.356915,110.404315 -141.894001,110.137426 -141.509543,109.904479 -141.201806,109.708749 -140.968949,109.553452 -140.809028,109.441738 -140.719997,109.376692 -135.209991,105.094343 -121.092036,121.092036 -126.026318,126.026765 -126.10193,126.107016 -126.232663,126.251805 -126.415711,126.463543 -126.648189,126.744553 -126.927135,127.097059 -127.249516,127.523192 -127.612228,128.024983 -128.0121,128.604361 -128.445896,129.263153 -128.91032,130.00308 -129.402016,130.82576 -129.917575,131.732699 -130.453535,132.725294 -131.006384,133.804833 -131.572566,134.972488 -132.148482,136.229318 -132.730493,137.576268 -133.314927,139.014164 -133.898076,140.543716 -134.476206,142.165514 -135.045557,143.88003 -135.602344,145.687613 -136.142767,147.588493 -136.663009,149.582778 -137.159243,151.670453 -137.627631,153.85138 -138.064332,156.125299 -138.465506,158.491825 -138.827312,160.950451 -139.145918,163.500545 -139.417499,166.141353 -139.638246,168.871997 -139.804365,171.691475 -139.912083,174.598664 -139.942869,176.084765 -139.944266,176.17836 -139.943939,176.183694 -132.831995,181.605785 -132.826766,181.604688 -132.736882,181.578554 -131.311995,181.155305 -128.537132,180.281527 -125.862315,179.374661 -123.287627,178.438643 -120.81303,177.477397 -118.438362,176.494829 -116.163337,175.494827 -113.987548,174.481253 -111.91047,173.457945 -109.931454,172.428709 -108.049736,171.397317 -106.26443,170.367506 -104.57454,169.342971 -102.978948,168.327364 -101.476429,167.32429 -100.065642,166.337303 -98.745136,165.369906 -97.513354,164.425543 -96.36863,163.507601 -95.309193,162.619403 -94.33317,161.764208 -93.438586,160.945206 -92.623367,160.165515 -91.885345,159.42818 -91.222254,158.73617 -90.631738,158.092375 -90.111349,157.4996 -89.658556,156.96057 -89.270738,156.47792 -88.945195,156.054197 -88.679147,155.691856 -88.469738,155.39326 -88.314036,155.160673 -88.209039,154.996264 -88.151677,154.902099 -84.699879,148.837136 -65.534538,158.21437 -68.204781,164.661733 -68.243926,164.764811 -68.3093,164.948607 -68.397385,165.214277 -68.504629,165.562862 -68.627443,165.995283 -68.76221,166.512349 -68.905286,167.114747 -69.053001,167.803046 -69.201667,168.577697 -69.347581,169.439029 -69.487023,170.38725 -69.616267,171.422448 -69.73158,172.544589 -69.829224,173.753519 -69.905466,175.04896 -69.956574,176.430514 -69.978828,177.897659 -69.968515,179.449755 -69.92194,181.086038 -69.835428,182.805625 -69.705322,184.607512 -69.527994,186.490574 -69.299845,188.45357 -69.017306,190.495137 -68.676847,192.613797 -68.274977,194.807955 -67.808246,197.075901 -67.273251,199.415808 -66.666642,201.825739 -65.985116,204.303644 -65.225431,206.847363 -64.384402,209.454625 -63.458908,212.123054 -62.445894,214.850168 -61.90563,216.234928 -61.871103,216.321933 -61.86876,216.326736 -53.223236,218.614471 -53.218825,218.611457 -53.145785,218.552915 -51.99133,217.616603 -49.762072,215.747444 -47.637906,213.886 -45.617403,212.035942 -43.699027,210.200879 -41.881131,208.384359 -40.161966,206.589863 -38.539678,204.820805 -37.012311,203.080528 -35.577811,201.372301 -34.234026,199.699317 -32.97871,198.064689 -31.809527,196.471449 -30.724049,194.922544 -29.719762,193.420835 -28.794068,191.969093 -27.944287,190.569999 -27.167661,189.226139 -26.461355,187.940004 -25.822461,186.713987 -25.248002,185.550382 -24.734933,184.45138 -24.280144,183.419069 -23.880467,182.455432 -23.532671,181.562344 -23.233475,180.741574 -22.979544,179.994777 -22.767495,179.323502 -22.5939,178.72918 -22.455289,178.213131 -22.348155,177.77656 -22.268954,177.420555 -22.214111,177.146089 -22.180023,176.954013 -22.163063,176.845065 -21.294979,169.920824 0,171.25 0.000316,178.228444 0.003597,178.338656 0.013535,178.533479 0.033822,178.812636 0.06814,179.175726 0.120155,179.62223 0.193518,180.15151 0.291862,180.762805 0.418792,181.455239 0.577888,182.227816 0.772698,183.079421 1.006739,184.008825 1.283486,185.014683 1.606377,186.095535 1.978802,187.249807 2.404108,188.475815 2.885587,189.771762 3.42648,191.135744 4.029969,192.565747 4.699177,194.059652 5.437162,195.615237 6.246916,197.230173 7.131362,198.902036 8.093351,200.628298 9.135656,202.406338 10.260975,204.233436 11.471924,206.106785 12.771032,208.023483 14.160746,209.980542 15.643421,211.974889 17.221322,214.003366 18.896618,216.062737 20.671383,218.149685 22.547592,220.260821 24.527117,222.392682 25.55618,223.465283 25.621374,223.532453 25.625376,223.535993 34.488277,222.341086 34.4912,222.336613 34.536277,222.254576 35.244543,220.947746 36.588812,218.367768 37.838943,215.835135 38.997657,213.352692 40.067758,210.923184 41.052122,208.549259 41.953699,206.233465 42.775509,203.978246 43.520637,201.785941 44.192232,199.658786 44.793504,197.598906 45.32772,195.608318 45.798197,193.688929 46.208308,191.842533 46.561469,190.070811 46.861141,188.375329 47.110826,186.757537 47.314062,185.21877 47.474422,183.760245 47.595506,182.383059 47.680945,181.088193 47.734389,179.876504 47.75951,178.748733 47.759997,177.705498 47.739548,176.747297 47.701874,175.874506 47.650689,175.087381 47.589711,174.386056 47.522654,173.770542 47.45323,173.240731 47.385141,172.796394 47.322076,172.43718 47.267711,172.162618 47.2257,171.972119 47.199676,171.864973 45.351889,165.135607 65.534538,158.21437 68.205365,164.661491 68.250572,164.762058 68.33431,164.938248 68.459881,165.188391 68.630534,165.51071 68.84946,165.903321 69.119786,166.364236 69.444576,166.891365 69.826827,167.482517 70.269465,168.135401 70.775342,168.847631 71.347234,169.616725 71.987841,170.44011 72.699776,171.315122 73.485574,172.23901 74.347678,173.208936 75.288444,174.221981 76.310138,175.275145 77.414927,176.36535 78.604887,177.489444 79.881993,178.644202 81.248117,179.826329 82.705033,181.032466 84.254407,182.259187 85.897798,183.503008 87.636658,184.760387 89.472327,186.027725 91.406036,187.301376 93.438898,188.577642 95.571915,189.852783 97.805969,191.123015 100.141828,192.384517 102.580138,193.633433 105.121426,194.865875 107.766096,196.077926 109.127293,196.675074 109.213229,196.712183 109.218282,196.713922 116.949264,192.218287 116.950252,192.213035 116.960503,192.119993 117.114754,190.641598 117.369382,187.743579 117.555155,184.925327 117.675678,182.188428 117.734589,179.534345 117.735561,176.964425 117.682294,174.479892 117.578512,172.081848 117.427962,169.771274 117.234408,167.549031 117.00163,165.415853 116.733415,163.372354 116.433561,161.419026 116.105869,159.556236 115.754138,157.784229 115.382166,156.103128 114.993743,154.512933 114.592649,153.013523 114.182648,151.604655 113.767489,150.285964 113.3509,149.056967 112.936583,147.917061 112.528213,146.865522 112.129433,145.901513 111.743854,145.024076 111.375045,144.23214 111.026536,143.524519 110.701814,142.899914 110.404315,142.356915 110.137426,141.894001 109.904479,141.509543 109.708749,141.201806 109.553452,140.968949 109.441738,140.809028 109.376692,140.719997 105.094343,135.209991 121.092036,121.092036 126.026765,126.026318 126.107016,126.10193 126.251805,126.232663 126.463543,126.415711 126.744553,126.648189 127.097059,126.927135 127.523192,127.249516 128.024983,127.612228 128.604361,128.0121 129.263153,128.445896 130.00308,128.91032 130.82576,129.402016 131.732699,129.917575 132.725294,130.453535 133.804833,131.006384 134.972488,131.572566 136.229318,132.148482 137.576268,132.730493 139.014164,133.314927 140.543716,133.898076 142.165514,134.476206 143.88003,135.045557 145.687613,135.602344 147.588493,136.142767 149.582778,136.663009 151.670453,137.159243 153.85138,137.627631 156.125299,138.064332 158.491825,138.465506 160.950451,138.827312 163.500545,139.145918 166.141353,139.417499 168.871997,139.638246 171.691475,139.804365 174.598664,139.912083 176.084765,139.942869 176.17836,139.944266 176.183694,139.943939 181.605785,132.831995 181.604688,132.826766 181.578554,132.736882 181.155305,131.311995 180.281527,128.537132 179.374661,125.862315 178.438643,123.287627 177.477397,120.81303 176.494829,118.438362 175.494827,116.163337 174.481253,113.987548 173.457945,111.91047 172.428709,109.931454 171.397317,108.049736 170.367506,106.26443 169.342971,104.57454 168.327364,102.978948 167.32429,101.476429 166.337303,100.065642 165.369906,98.745136 164.425543,97.513354 163.507601,96.36863 162.619403,95.309193 161.764208,94.33317 160.945206,93.438586 160.165515,92.623367 159.42818,91.885345 158.73617,91.222254 158.092375,90.631738 157.4996,90.111349 156.96057,89.658556 156.47792,89.270738 156.054197,88.945195 155.691856,88.679147 155.39326,88.469738 155.160673,88.314036 154.996264,88.209039 154.902099,88.151677 148.837136,84.699879 158.21437,65.534538 164.661733,68.204781 164.764811,68.243926 164.948607,68.3093 165.214277,68.397385 165.562862,68.504629 165.995283,68.627443 166.512349,68.76221 167.114747,68.905286 167.803046,69.053001 168.577697,69.201667 169.439029,69.347581 170.38725,69.487023 171.422448,69.616267 172.544589,69.73158 173.753519,69.829224 175.04896,69.905466 176.430514,69.956574 177.897659,69.978828 179.449755,69.968515 181.086038,69.92194 182.805625,69.835428 184.607512,69.705322 186.490574,69.527994 188.45357,69.299845 190.495137,69.017306 192.613797,68.676847 194.807955,68.274977 197.075901,67.808246 199.415808,67.273251 201.825739,66.666642 204.303644,65.985116 206.847363,65.225431 209.454625,64.384402 212.123054,63.458908 214.850168,62.445894 216.234928,61.90563 216.321933,61.871103 216.326736,61.86876 218.614471,53.223236 218.611457,53.218825 218.552915,53.145785 217.616603,51.99133 215.747444,49.762072 213.886,47.637906 212.035942,45.617403 210.200879,43.699027 208.384359,41.881131 206.589863,40.161966 204.820805,38.539678 203.080528,37.012311 201.372301,35.577811 199.699317,34.234026 198.064689,32.97871 196.471449,31.809527 194.922544,30.724049 193.420835,29.719762 191.969093,28.794068 190.569999,27.944287 189.226139,27.167661 187.940004,26.461355 186.713987,25.822461 185.550382,25.248002 184.45138,24.734933 183.419069,24.280144 182.455432,23.880467 181.562344,23.532671 180.741574,23.233475 179.994777,22.979544 179.323502,22.767495 178.72918,22.5939 178.213131,22.455289 177.77656,22.348155 177.420555,22.268954 177.146089,22.214111 176.954013,22.180023 176.845065,22.163063 169.920824,21.294979 z"/><g class="guides"><polyline fill="none" stroke="#444" stroke-width="0.5" stroke-miterlimit="10" points="10,0 -10,0"/><polyline fill="none" stroke="#444" stroke-width="0.5" stroke-miterlimit="10" points="0,10 0,-10"/></g><circle fill="#c00" class="firstmarker" stroke="none" stroke-miterlimit="10" cx="198.206736" cy="-26.722457" r="9.8125"/><g class="geartext"><g class="text"><polyline fill="none" stroke="#444" stroke-width="0.5" stroke-linecap="square" stroke-miterlimit="1"  points="11.86 -140.75 8.87 -140.97 5.87 -141.13 2.87 -141.22 -0.13 -141.25 "/><polyline fill="none" stroke="#444" stroke-width="0.5" stroke-linecap="square" stroke-miterlimit="1"  points="5.62 -135.13 6.12 -147.12 "/><polyline fill="none" stroke="#444" stroke-width="0.5" stroke-linecap="square" stroke-miterlimit="1"  points="12.36 -146.73 9.06 -143.97 5.87 -141.13 2.81 -138.22 -0.12 -135.25 "/><polyline fill="none" stroke="#444" stroke-width="0.5" stroke-linecap="square" stroke-miterlimit="1"  points="11.36 -134.77 8.68 -137.98 5.87 -141.13 2.94 -144.22 -0.13 -147.25 "/><polyline fill="none" stroke="#444" stroke-width="0.5" stroke-linecap="square" stroke-miterlimit="1"  points="18.58 -146.07 22.12 -148.61 19.47 -130.81 "/><polyline fill="none" stroke="#444" stroke-width="0.5" stroke-linecap="square" stroke-miterlimit="1"  points="22.25 -130.37 19.47 -130.81 16.69 -131.19 "/><polyline fill="none" stroke="#444" stroke-width="0.5" stroke-linecap="square" stroke-miterlimit="1"  points="58.88 -138.23 51.82 -121.67 50.9 -126.92 49.78 -132.19 48.46 -137.46 46.94 -142.73 41.31 -125.63 "/><polyline fill="none" stroke="#444" stroke-width="0.5" stroke-linecap="square" stroke-miterlimit="1"  points="72.93 -124.45 70.27 -125.97 67.58 -127.44 64.86 -128.84 62.11 -130.19 "/><polyline fill="none" stroke="#444" stroke-width="0.5" stroke-linecap="square" stroke-miterlimit="1"  points="69.9 -119.28 67.35 -120.73 64.77 -122.14 62.16 -123.49 59.53 -124.78 "/><polyline fill="none" stroke="#444" stroke-width="0.5" stroke-linecap="square" stroke-miterlimit="1"  points="79.78 -123.77 84.07 -124.53 74 -109.61 "/><polyline fill="none" stroke="#444" stroke-width="0.5" stroke-linecap="square" stroke-miterlimit="1"  points="76.31 -108.01 74 -109.61 71.65 -111.16 "/><polyline fill="none" stroke="#444" stroke-width="0.5" stroke-linecap="square" stroke-miterlimit="1"  points="86.33 -111.8 88.68 -109.94 91 -108.03 93.27 -106.08 93.47 -101.86 91.44 -99.65 87.33 -99.32 85.2 -101.15 83.03 -102.94 82.66 -107.05 88.16 -114.18 92.45 -114.61 96.79 -114.92 99.21 -112.84 "/><polyline fill="none" stroke="#444" stroke-width="0.5" stroke-linecap="square" stroke-miterlimit="1"  points="109.86 -88.78 111.72 -86.42 113.53 -84.03 115.29 -81.6 119.49 -80.82 121.97 -82.5 122.64 -86.8 120.77 -89.39 118.84 -91.93 116.86 -94.43 102.86 -83.12 "/><polyline fill="none" stroke="#444" stroke-width="0.5" stroke-linecap="square" stroke-miterlimit="1"  points="112.59 -69.37 122.81 -75.67 "/><polyline fill="none" stroke="#444" stroke-width="0.5" stroke-linecap="square" stroke-miterlimit="1"  points="125.36 -77.24 127.92 -78.82 "/><polyline fill="none" stroke="#444" stroke-width="0.5" stroke-linecap="square" stroke-miterlimit="1"  points="123.23 -55.74 119.31 -57.05 120.75 -60.92 134.14 -67.68 "/><polyline fill="none" stroke="#444" stroke-width="0.5" stroke-linecap="square" stroke-miterlimit="1"  points="131.43 -59.45 130.14 -62.23 128.79 -64.98 127.38 -67.7 125.91 -70.39 "/><polyline fill="none" stroke="#444" stroke-width="0.5" stroke-linecap="square" stroke-miterlimit="1"  points="126.45 -38.75 125.6 -41.42 124.69 -44.08 123.72 -46.72 125.49 -50.46 131.05 -52.69 134.95 -50.96 136 -48.08 136.99 -45.18 137.92 -42.26 "/><polyline fill="none" stroke="#444" stroke-width="0.5" stroke-linecap="square" stroke-miterlimit="1"  points="133.78 -34.86 137.41 -32.7 141.01 -30.41 141.62 -27.41 139.22 -23.88 130.35 -22.36 "/><polyline fill="none" stroke="#444" stroke-width="0.5" stroke-linecap="square" stroke-miterlimit="1"  points="127.98 -33.34 145.4 -37.88 "/><polyline fill="none" stroke="#444" stroke-width="0.5" stroke-linecap="square" stroke-miterlimit="1"  points="132.22 -2.81 132.25 0 132.22 2.81 132.13 5.62 134.98 8.61 146.95 9.38 150.11 6.38 150.22 3.19 150.25 0 150.22 -3.19 "/><polyline fill="none" stroke="#444" stroke-width="0.5" stroke-linecap="square" stroke-miterlimit="1"  points="150.25 0 132.25 0 "/><polyline fill="none" stroke="#444" stroke-width="0.5" stroke-linecap="square" stroke-miterlimit="1"  points="141.62 27.41 142.17 24.39 142.66 21.37 143.08 18.33 143.44 15.29 "/><polyline fill="none" stroke="#444" stroke-width="0.5" stroke-linecap="square" stroke-miterlimit="1"  points="135.73 26.27 136.26 23.38 136.72 20.48 137.13 17.57 137.47 14.65 "/><polyline fill="none" stroke="#444" stroke-width="0.5" stroke-linecap="square" stroke-miterlimit="1"  points="131.29 43.3 132.18 40.5 133.01 37.69 133.78 34.86 134.49 32.01 137.65 35.86 140.71 39.87 143.66 44.02 126.45 38.75 "/><polyline fill="none" stroke="#444" stroke-width="0.5" stroke-linecap="square" stroke-miterlimit="1"  points="126.11 63.62 124.73 66.29 123.29 68.92 121.8 71.53 122.81 75.67 125.36 77.24 129.56 76.08 131.15 73.31 132.68 70.51 134.14 67.68 118.07 59.57 "/><polyline fill="none" stroke="#444" stroke-width="0.5" stroke-linecap="square" stroke-miterlimit="1"  points="112.2 90.66 114.1 88.26 115.95 85.82 117.74 83.34 119.49 80.82 "/><polyline fill="none" stroke="#444" stroke-width="0.5" stroke-linecap="square" stroke-miterlimit="1"  points="107.53 86.89 109.35 84.59 111.12 82.25 112.84 79.87 114.52 77.45 "/><polyline fill="none" stroke="#444" stroke-width="0.5" stroke-linecap="square" stroke-miterlimit="1"  points="95.62 99.85 97.71 97.8 99.77 95.7 101.78 93.56 103.74 91.38 104.72 96.27 105.54 101.24 106.2 106.29 93.47 93.56 "/><polyline fill="none" stroke="#444" stroke-width="0.5" stroke-linecap="square" stroke-miterlimit="1"  points="81.5 115.37 79.03 117.07 76.53 118.72 73.99 120.32 72.93 124.45 74.45 127.04 78.7 127.99 81.4 126.29 84.07 124.53 86.69 122.72 76.31 108.01 "/><polyline fill="none" stroke="#444" stroke-width="0.5" stroke-linecap="square" stroke-miterlimit="1"  points="61.96 116.84 64.77 122.14 64.86 128.84 64.69 135.61 59.33 131.48 54.17 127.19 51.82 121.67 "/><polyline fill="none" stroke="#444" stroke-width="0.5" stroke-linecap="square" stroke-miterlimit="1"  points="64.77 122.14 62.16 123.49 59.53 124.78 56.86 126.01 54.17 127.19 "/><polyline fill="none" stroke="#444" stroke-width="0.5" stroke-linecap="square" stroke-miterlimit="1"  points="39.2 138.82 42.14 137.96 45.06 137.03 47.96 136.04 50.84 134.99 "/><polyline fill="none" stroke="#444" stroke-width="0.5" stroke-linecap="square" stroke-miterlimit="1"  points="37.57 133.05 40.39 132.22 43.19 131.33 45.97 130.38 48.72 129.38 "/><polyline fill="none" stroke="#444" stroke-width="0.5" stroke-linecap="square" stroke-miterlimit="1"  points="19.47 130.81 22.25 130.37 25.01 129.86 27.76 129.3 30.5 128.68 31.89 134.52 29.65 138.1 26.71 138.7 23.76 139.24 21.24 142.68 21.68 145.64 25.28 148.11 28.42 147.54 31.54 146.9 33.96 143.28 "/><polyline fill="none" stroke="#444" stroke-width="0.5" stroke-linecap="square" stroke-miterlimit="1"  points="15.79 149.42 12.62 149.72 9.43 149.95 6.25 150.12 3.06 150.22 5.87 141.13 8.3 131.99 "/></g></g><g class="guides gearguides" opacity="0.2"><circle class="pitch" fill="none" stroke="#f00" stroke-miterlimit="10" cx="0" cy="0" r="200"/><circle class="outer" fill="none" stroke="#ccc" stroke-miterlimit="10" stroke-dasharray="2,2" cx="0" cy="0" r="225"/><circle class="base" fill="none" stroke="#00f" stroke-miterlimit="10" stroke-dasharray="2,2" cx="0" cy="0" r="178.2"/></g></svg>