{
  "accessors": [
    {
      "bufferView": 2,
      "componentType": 5126,
      "count": 1896,
      "max": [
        1.0961447954177856,
        0.28000003099441528,
        1.0993983745574951
      ],
      "min": [
        -1.1000000238418579,
        -0.28000003099441528,
        -1.0993983745574951
      ],
      "type": "VEC3"
    },
    {
      "bufferView": 2,
      "byteOffset": 22752,
      "componentType": 5126,
      "count": 1896,
      "max": [
        0.9996790885925293,
        1,
        0.99999254941940308
      ],
      "min": [
        -1,
        -1,
        -0.99999254941940308
      ],
      "type": "VEC3"
    },
    {
      "bufferView": 1,
      "componentType": 5126,
      "count": 1896,
      "max": [
        0,
        0
      ],
      "min": [
        0,
        0
      ],
      "type": "VEC2"
    },
    {
      "bufferView": 0,
      "componentType": 5125,
      "count": 4488,
      "max": [
        1895
      ],
      "min": [
        0
      ],
      "type": "SCALAR"
    },
    {
      "bufferView": 2,
      "byteOffset": 45504,
      "componentType": 5126,
      "count": 164,
      "max": [
        0.44615152478218079,
        0.70563697814941406,
        0.34220549464225769
      ],
      "min": [
        -0.34230118989944458,
        -0.70563697814941406,
        -0.34203734993934631
      ],
      "type": "VEC3"
    },
    {
      "bufferView": 2,
      "byteOffset": 47472,
      "componentType": 5126,
      "count": 164,
      "max": [
        0.99900549650192261,
        1,
        0.99900549650192261
      ],
      "min": [
        -0.99900549650192261,
        -1,
        -0.99900549650192261
      ],
      "type": "VEC3"
    },
    {
      "bufferView": 1,
      "byteOffset": 15168,
      "componentType": 5126,
      "count": 164,
      "max": [
        1,
        1
      ],
      "min": [
        0,
        0
      ],
      "type": "VEC2"
    },
    {
      "bufferView": 0,
      "byteOffset": 17952,
      "componentType": 5125,
      "count": 444,
      "max": [
        163
      ],
      "min": [
        0
      ],
      "type": "SCALAR"
    },
    {
      "bufferView": 2,
      "byteOffset": 49440,
      "componentType": 5126,
      "count": 1900,
      "max": [
        1.0961447954177856,
        0.2800000011920929,
        1.0993983745574951
      ],
      "min": [
        -1.1000000238418579,
        -0.28000003099441528,
        -1.0993983745574951
      ],
      "type": "VEC3"
    },
    {
      "bufferView": 2,
      "byteOffset": 72240,
      "componentType": 5126,
      "count": 1900,
      "max": [
        0.9996790885925293,
        1,
        0.99999254941940308
      ],
      "min": [
        -1,
        -1,
        -0.99999254941940308
      ],
      "type": "VEC3"
    },
    {
      "bufferView": 1,
      "byteOffset": 16480,
      "componentType": 5126,
      "count": 1900,
      "max": [
        0,
        0
      ],
      "min": [
        0,
        0
      ],
      "type": "VEC2"
    },
    {
      "bufferView": 0,
      "byteOffset": 19728,
      "componentType": 5125,
      "count": 4488,
      "max": [
        1899
      ],
      "min": [
        0
      ],
      "type": "SCALAR"
    },
    {
      "bufferView": 2,
      "byteOffset": 95040,
      "componentType": 5126,
      "count": 154,
      "max": [
        0.34260678291320801,
        0.69601333141326904,
        0.34354579448699951
      ],
      "min": [
        -0.4328644871711731,
        -0.71526062488555908,
        -0.34007188677787781
      ],
      "type": "VEC3"
    },
    {
      "bufferView": 2,
      "byteOffset": 96888,
      "componentType": 5126,
      "count": 154,
      "max": [
        0.99809235334396362,
        1,
        0.99809235334396362
      ],
      "min": [
        -0.99809235334396362,
        -1,
        -0.99809235334396362
      ],
      "type": "VEC3"
    },
    {
      "bufferView": 1,
      "byteOffset": 31680,
      "componentType": 5126,
      "count": 154,
      "max": [
        1,
        1
      ],
      "min": [
        0,
        0
      ],
      "type": "VEC2"
    },
    {
      "bufferView": 0,
      "byteOffset": 37680,
      "componentType": 5125,
      "count": 408,
      "max": [
        153
      ],
      "min": [
        0
      ],
      "type": "SCALAR"
    },
    {
      "bufferView": 3,
      "componentType": 5126,
      "count": 294,
      "max": [
        12.25
      ],
      "min": [
        0.041666667908430099
      ],
      "type": "SCALAR"
    },
    {
      "bufferView": 4,
      "componentType": 5126,
      "count": 294,
      "max": [
        0,
        0.99999725818634033,
        -0,
        0.99998658895492554
      ],
      "min": [
        0,
        -0.99994158744812012,
        -0,
        0.0023577946703881025
      ],
      "type": "VEC4"
    },
    {
      "bufferView": 3,
      "byteOffset": 1176,
      "componentType": 5126,
      "count": 294,
      "max": [
        12.25
      ],
      "min": [
        0.041666667908430099
      ],
      "type": "SCALAR"
    },
    {
      "bufferView": 4,
      "byteOffset": 4704,
      "componentType": 5126,
      "count": 294,
      "max": [
        0,
        0.99999368190765381,
        -0,
        0.99997949600219727
      ],
      "min": [
        0,
        -0.99988394975662231,
        -0,
        -0.0057610389776527882
      ],
      "type": "VEC4"
    }
  ],
  "animations": [
    {
      "channels": [
        {
          "sampler": 0,
          "target": {
            "node": 4,
            "path": "rotation"
          }
        },
        {
          "sampler": 1,
          "target": {
            "node": 7,
            "path": "rotation"
          }
        }
      ],
      "name": "Animation",
      "samplers": [
        {
          "input": 16,
          "interpolation": "LINEAR",
          "output": 17
        },
        {
          "input": 18,
          "interpolation": "LINEAR",
          "output": 19
        }
      ]
    }
  ],
  "asset": {
    "extras": {
      "author": "ravindra.mohan09 (https://sketchfab.com/ravindra.mohan09)",
      "license": "CC-BY-4.0 (http://creativecommons.org/licenses/by/4.0/)",
      "source": "https://sketchfab.com/3d-models/spure-gear-c30bd3b9910049ad9ac479cb99e566ea",
      "title": "Spure gear"
    },
    "generator": "Sketchfab-8.68.0",
    "version": "2.0"
  },
  "bufferViews": [
    {
      "buffer": 0,
      "byteLength": 39312,
      "byteOffset": 0,
      "name": "floatBufferViews",
      "target": 34963
    },
    {
      "buffer": 0,
      "byteLength": 32912,
      "byteOffset": 39312,
      "byteStride": 8,
      "name": "floatBufferViews",
      "target": 34962
    },
    {
      "buffer": 0,
      "byteLength": 98736,
      "byteOffset": 72224,
      "byteStride": 12,
      "name": "floatBufferViews",
      "target": 34962
    },
    {
      "buffer": 0,
      "byteLength": 2352,
      "byteOffset": 170960,
      "name": "floatBufferViews"
    },
    {
      "buffer": 0,
      "byteLength": 9408,
      "byteOffset": 173312,
      "byteStride": 16,
      "name": "floatBufferViews"
    }
  ],
  "buffers": [
    {
      "byteLength": 182720,
      "uri": "scene.bin"
    }
  ],
  "materials": [
    {
      "doubleSided": true,
      "emissiveFactor": [
        0,
        0,
        0
      ],
      "name": "Material.001",
      "pbrMetallicRoughness": {
        "baseColorFactor": [
          0.80000000000000004,
          0.296761,
          0.44681999999999999,
          1
        ],
        "metallicFactor": 0.70652199999999998,
        "roughnessFactor": 0.086956500000000006
      }
    },
    {
      "doubleSided": true,
      "emissiveFactor": [
        0,
        0,
        0
      ],
      "name": "steel2",
      "pbrMetallicRoughness": {
        "baseColorFactor": [
          0.80000000000000004,
          0.80000000000000004,
          0.80000000000000004,
          1
        ],
        "metallicFactor": 1,
        "roughnessFactor": 0.27173900000000001
      }
    },
    {
      "doubleSided": true,
      "emissiveFactor": [
        0,
        0,
        0
      ],
      "name": "steel1",
      "pbrMetallicRoughness": {
        "baseColorFactor": [
          0.27414500000000003,
          0.80000000000000004,
          0.66768899999999998,
          1
        ],
        "metallicFactor": 0.94565200000000005,
        "roughnessFactor": 0.108696
      }
    }
  ],
  "meshes": [
    {
      "primitives": [
        {
          "attributes": {
            "NORMAL": 1,
            "POSITION": 0,
            "TEXCOORD_0": 2
          },
          "indices": 3,
          "material": 0,
          "mode": 4
        }
      ]
    },
    {
      "primitives": [
        {
          "attributes": {
            "NORMAL": 5,
            "POSITION": 4,
            "TEXCOORD_0": 6
          },
          "indices": 7,
          "material": 1,
          "mode": 4
        }
      ]
    },
    {
      "primitives": [
        {
          "attributes": {
            "NORMAL": 9,
            "POSITION": 8,
            "TEXCOORD_0": 10
          },
          "indices": 11,
          "material": 2,
          "mode": 4
        }
      ]
    },
    {
      "primitives": [
        {
          "attributes": {
            "NORMAL": 13,
            "POSITION": 12,
            "TEXCOORD_0": 14
          },
          "indices": 15,
          "material": 1,
          "mode": 4
        }
      ]
    }
  ],
  "nodes": [
    {
      "children": [
        1
      ],
      "name": "RootNode (gltf orientation matrix)",
      "rotation": [
        -0.70710678118654746,
        -0,
        -0,
        0.70710678118654757
      ]
    },
    {
      "children": [
        2
      ],
      "name": "RootNode (model correction matrix)"
    },
    {
      "children": [
        3
      ],
      "name": "root"
    },
    {
      "children": [
        4,
        7
      ],
      "matrix": [
        1,
        0,
        0,
        0,
        0,
        2.2204460492503131e-16,
        1,
        0,
        0,
        -1,
        2.2204460492503131e-16,
        0,
        0,
        0,
        0,
        1
      ],
      "name": "GLTF_SceneRootNode"
    },
    {
      "children": [
        5,
        6
      ],
      "name": "Gear_1",
      "rotation": [
        0,
        -0.77413308620452881,
        0,
        0.63302290439605713
      ],
      "translation": [
        -1.0597900152206421,
        0,
        0
      ]
    },
    {
      "mesh": 0,
      "name": ""
    },
    {
      "mesh": 1,
      "name": ""
    },
    {
      "children": [
        8,
        9
      ],
      "name": "Gear.002_2",
      "rotation": [
        0,
        0.96312695741653442,
        0,
        0.26904726028442383
      ],
      "translation": [
        1.0360513925552368,
        0.0065859965980052948,
        0.0022698938846588135
      ]
    },
    {
      "mesh": 2,
      "name": ""
    },
    {
      "mesh": 3,
      "name": ""
    }
  ],
  "scene": 0,
  "scenes": [
    {
      "name": "OSG_Scene",
      "nodes": [
        0
      ]
    }
  ]
}

